  0
SECTION
  2
HEADER
  9
$ACADVER
  1
AC1014
  9
$HANDSEED
  5
FFFF
  9
$MEASUREMENT
 70
     1
  0
ENDSEC
  0
SECTION
  2
TABLES
  0
TABLE
  2
VPORT
  5
8
330
0
100
AcDbSymbolTable
 70
     4
  0
VPORT
  5
2E
330
8
100
AcDbSymbolTableRecord
100
AcDbViewportTableRecord
  2
*ACTIVE
 70
     0
 10
0.0
 20
0.0
 11
1.0
 21
1.0
 12
210.0
 22
148.5
 13
0.0
 23
0.0
 14
10.0
 24
10.0
 15
10.0
 25
10.0
 16
0.0
 26
0.0
 36
1.0
 17
0.0
 27
0.0
 37
0.0
 40
341.0
 41
1.24
 42
50.0
 43
0.0
 44
0.0
 50
0.0
 51
0.0
 71
     0
 72
   100
 73
     1
 74
     3
 75
     0
 76
     0
 77
     0
 78
     0
  0
ENDTAB
  0
TABLE
  2
LTYPE
  5
5
330
0
100
AcDbSymbolTable
 70
     1
  0
LTYPE
  5
14
330
5
100
AcDbSymbolTableRecord
100
AcDbLinetypeTableRecord
  2
BYBLOCK
 70
     0
  3

 72
    65
 73
     0
 40
0.0
  0
LTYPE
  5
15
330
5
100
AcDbSymbolTableRecord
100
AcDbLinetypeTableRecord
  2
BYLAYER
 70
     0
  3

 72
    65
 73
     0
 40
0.0
  0
LTYPE
  5
16
330
5
100
AcDbSymbolTableRecord
100
AcDbLinetypeTableRecord
  2
CONTINUOUS
 70
     0
  3
Solid line
 72
    65
 73
     0
 40
0.0
  0
ENDTAB
  0
TABLE
  2
LAYER
  5
2
100
AcDbSymbolTable
 70
1
  0
LAYER
  5
50
100
AcDbSymbolTableRecord
100
AcDbLayerTableRecord
  2
0
 70
0
  6
CONTINUOUS
  0
ENDTAB
  0
TABLE
  2
STYLE
  5
3
330
0
100
AcDbSymbolTable
 70
     1
  0
STYLE
  5
11
330
3
100
AcDbSymbolTableRecord
100
AcDbTextStyleTableRecord
  2
STANDARD
 70
     0
 40
0.0
 41
1.0
 50
0.0
 71
     0
 42
2.5
  3
txt
  4

  0
ENDTAB
  0
TABLE
  2
VIEW
  5
6
330
0
100
AcDbSymbolTable
 70
     0
  0
ENDTAB
  0
TABLE
  2
UCS
  5
7
330
0
100
AcDbSymbolTable
 70
     0
  0
ENDTAB
  0
TABLE
  2
APPID
  5
9
330
0
100
AcDbSymbolTable
 70
     2
  0
APPID
  5
12
330
9
100
AcDbSymbolTableRecord
100
AcDbRegAppTableRecord
  2
ACAD
 70
     0
  0
ENDTAB
  0
TABLE
  2
DIMSTYLE
  5
A
330
0
100
AcDbSymbolTable
 70
     1
  0
DIMSTYLE
105
27
330
A
100
AcDbSymbolTableRecord
100
AcDbDimStyleTableRecord
  2
ISO-25
 70
     0
  3

  4

  5

  6

  7

 40
1.0
 41
2.5
 42
0.625
 43
3.75
 44
1.25
 45
0.0
 46
0.0
 47
0.0
 48
0.0
140
2.5
141
2.5
142
0.0
143
0.03937007874016
144
1.0
145
0.0
146
1.0
147
0.625
 71
     0
 72
     0
 73
     0
 74
     0
 75
     0
 76
     0
 77
     1
 78
     8
170
     0
171
     3
172
     1
173
     0
174
     0
175
     0
176
     0
177
     0
178
     0
270
     2
271
     2
272
     2
273
     2
274
     3
340
11
275
     0
280
     0
281
     0
282
     0
283
     0
284
     8
285
     0
286
     0
287
     3
288
     0
  0
ENDTAB
  0
TABLE
  2
BLOCK_RECORD
  5
1
330
0
100
AcDbSymbolTable
 70
     1
  0
BLOCK_RECORD
  5
1F
330
1
100
AcDbSymbolTableRecord
100
AcDbBlockTableRecord
  2
*MODEL_SPACE
  0
BLOCK_RECORD
  5
1B
330
1
100
AcDbSymbolTableRecord
100
AcDbBlockTableRecord
  2
*PAPER_SPACE
  0
ENDTAB
  0
ENDSEC
  0
SECTION
  2
BLOCKS
  0
BLOCK
  5
20
330
1F
100
AcDbEntity
  8
0
100
AcDbBlockBegin
  2
*MODEL_SPACE
 70
     0
 10
0.0
 20
0.0
 30
0.0
  3
*MODEL_SPACE
  1

  0
ENDBLK
  5
21
330
1F
100
AcDbEntity
  8
0
100
AcDbBlockEnd
  0
BLOCK
  5
1C
330
1B
100
AcDbEntity
 67
     1
  8
0
100
AcDbBlockBegin
  2
*PAPER_SPACE
  1

  0
ENDBLK
  5
1D
330
1B
100
AcDbEntity
 67
     1
  8
0
100
AcDbBlockEnd
  0
ENDSEC
  0
SECTION
  2
ENTITIES
  0
LINE
  5
100
100
AcDbEntity
  8
0
 62
7
100
AcDbLine
 10
16.312954
 20
-82.700572
 30
0.0
 11
16.312954
 21
-68.698815
 31
0.0
  0
LINE
  5
101
100
AcDbEntity
  8
0
 62
7
100
AcDbLine
 10
10.025129
 20
-104.274707
 30
0.0
 11
48.650081
 21
-104.274707
 31
0.0
  0
LINE
  5
102
100
AcDbEntity
  8
0
 62
7
100
AcDbLine
 10
49.650024
 20
-105.274620
 30
0.0
 11
49.650024
 21
-107.274630
 31
0.0
  0
LINE
  5
103
100
AcDbEntity
  8
0
 62
7
100
AcDbLine
 10
254.150207
 20
-82.700572
 30
0.0
 11
240.150034
 21
-82.700572
 31
0.0
  0
LINE
  5
104
100
AcDbEntity
  8
0
 62
7
100
AcDbLine
 10
58.887610
 20
-25.550544
 30
0.0
 11
44.887440
 21
-25.550544
 31
0.0
  0
SPLINE
  5
105
100
AcDbEntity
  8
0
 62
7
100
AcDbSpline
 70
8
 71
3
 72
8
 73
4
 74
0
 40
0
 40
0
 40
0
 40
0
 40
1
 40
1
 40
1
 40
1
 10
276.725143
 20
-69.149613
 30
0.0
 10
276.172853
 20
-69.149613
 30
0.0
 10
275.725143
 20
-69.597323
 30
0.0
 10
275.725133
 20
-70.149605
 30
0.0
  0
LINE
  5
106
100
AcDbEntity
  8
0
 62
7
100
AcDbLine
 10
197.287512
 20
-68.698815
 30
0.0
 11
211.287686
 21
-68.698815
 31
0.0
  0
LINE
  5
107
100
AcDbEntity
  8
0
 62
7
100
AcDbLine
 10
235.100202
 20
-63.650563
 30
0.0
 11
221.100029
 21
-63.650563
 31
0.0
  0
LINE
  5
108
100
AcDbEntity
  8
0
 62
7
100
AcDbLine
 10
154.425071
 20
-30.598796
 30
0.0
 11
168.425085
 21
-30.598796
 31
0.0
  0
LINE
  5
109
100
AcDbEntity
  8
0
 62
7
100
AcDbLine
 10
235.100202
 20
-68.698815
 30
0.0
 11
235.100202
 21
-82.700572
 31
0.0
  0
SPLINE
  5
10a
100
AcDbEntity
  8
0
 62
7
100
AcDbSpline
 70
8
 71
3
 72
8
 73
4
 74
0
 40
0
 40
0
 40
0
 40
0
 40
1
 40
1
 40
1
 40
1
 10
185.100089
 20
-107.274630
 30
0.0
 10
185.100099
 20
-107.826920
 30
0.0
 10
185.547809
 20
-108.274630
 30
0.0
 10
186.100089
 20
-108.274630
 30
0.0
  0
LINE
  5
10b
100
AcDbEntity
  8
0
 62
7
100
AcDbLine
 10
173.475006
 20
-82.700572
 30
0.0
 11
173.475006
 21
-68.698815
 31
0.0
  0
LINE
  5
10c
100
AcDbEntity
  8
0
 62
7
100
AcDbLine
 10
163.662583
 20
-25.550544
 30
0.0
 11
149.662570
 21
-25.550544
 31
0.0
  0
LINE
  5
10d
100
AcDbEntity
  8
0
 62
7
100
AcDbLine
 10
202.050023
 20
-49.648805
 30
0.0
 11
216.050187
 21
-49.648805
 31
0.0
  0
LINE
  5
10e
100
AcDbEntity
  8
0
 62
7
100
AcDbLine
 10
8.025002
 20
-69.149613
 30
0.0
 11
6.025003
 21
-69.149613
 31
0.0
  0
SPLINE
  5
10f
100
AcDbEntity
  8
0
 62
7
100
AcDbSpline
 70
8
 71
3
 72
8
 73
4
 74
0
 40
0
 40
0
 40
0
 40
0
 40
1
 40
1
 40
1
 40
1
 10
185.392989
 20
-5.317467
 30
0.0
 10
185.205449
 20
-5.505004
 30
0.0
 10
185.100089
 20
-5.759357
 30
0.0
 10
185.100089
 20
-6.024574
 30
0.0
  0
SPLINE
  5
110
100
AcDbEntity
  8
0
 62
7
100
AcDbSpline
 70
8
 71
3
 72
8
 73
4
 74
0
 40
0
 40
0
 40
0
 40
0
 40
1
 40
1
 40
1
 40
1
 10
234.100112
 20
-108.274630
 30
0.0
 10
234.652402
 20
-108.274630
 30
0.0
 10
235.100112
 20
-107.826920
 30
0.0
 10
235.100112
 20
-107.274630
 30
0.0
  0
LINE
  5
111
100
AcDbEntity
  8
0
 62
7
100
AcDbLine
 10
235.100202
 20
-82.700572
 30
0.0
 11
221.100029
 21
-82.700572
 31
0.0
  0
LINE
  5
112
100
AcDbEntity
  8
0
 62
7
100
AcDbLine
 10
236.100063
 20
-9.024661
 30
0.0
 11
274.725013
 21
-9.024661
 31
0.0
  0
LINE
  5
113
100
AcDbEntity
  8
0
 62
7
100
AcDbLine
 10
30.313124
 20
-44.600553
 30
0.0
 11
16.312954
 21
-44.600553
 31
0.0
  0
LINE
  5
114
100
AcDbEntity
  8
0
 62
7
100
AcDbLine
 10
63.937449
 20
-11.549580
 30
0.0
 11
77.937619
 21
-11.549580
 31
0.0
  0
LINE
  5
115
100
AcDbEntity
  8
0
 62
7
100
AcDbLine
 10
216.050187
 20
-63.650563
 30
0.0
 11
202.050023
 21
-63.650563
 31
0.0
  0
LINE
  5
116
100
AcDbEntity
  8
0
 62
7
100
AcDbLine
 10
173.475006
 20
-68.698815
 30
0.0
 11
187.475170
 21
-68.698815
 31
0.0
  0
LINE
  5
117
100
AcDbEntity
  8
0
 62
7
100
AcDbLine
 10
211.287686
 20
-30.598796
 30
0.0
 11
211.287686
 21
-44.600553
 31
0.0
  0
LINE
  5
118
100
AcDbEntity
  8
0
 62
7
100
AcDbLine
 10
54.125107
 20
-82.700572
 30
0.0
 11
40.124938
 21
-82.700572
 31
0.0
  0
LINE
  5
119
100
AcDbEntity
  8
0
 62
7
100
AcDbLine
 10
78.224957
 20
-82.700572
 30
0.0
 11
78.224957
 21
-68.698815
 31
0.0
  0
LINE
  5
11a
100
AcDbEntity
  8
0
 62
7
100
AcDbLine
 10
30.599933
 20
-63.650563
 30
0.0
 11
30.599933
 21
-49.648805
 31
0.0
  0
LINE
  5
11b
100
AcDbEntity
  8
0
 62
7
100
AcDbLine
 10
120.800062
 20
-63.650563
 30
0.0
 11
106.799968
 21
-63.650563
 31
0.0
  0
LINE
  5
11c
100
AcDbEntity
  8
0
 62
7
100
AcDbLine
 10
240.150034
 20
-68.698815
 30
0.0
 11
254.150207
 21
-68.698815
 31
0.0
  0
SPLINE
  5
11d
100
AcDbEntity
  8
0
 62
7
100
AcDbSpline
 70
8
 71
3
 72
8
 73
4
 74
0
 40
0
 40
0
 40
0
 40
0
 40
1
 40
1
 40
1
 40
1
 10
48.650023
 20
-9.024575
 30
0.0
 10
49.202308
 20
-9.024575
 30
0.0
 10
49.650023
 20
-8.576861
 30
0.0
 10
49.650024
 20
-8.024577
 30
0.0
  0
LINE
  5
11e
100
AcDbEntity
  8
0
 62
7
100
AcDbLine
 10
163.950083
 20
-63.650563
 30
0.0
 11
163.950083
 21
-49.648805
 31
0.0
  0
LINE
  5
11f
100
AcDbEntity
  8
0
 62
7
100
AcDbLine
 10
106.799968
 20
-63.650563
 30
0.0
 11
106.799968
 21
-49.648805
 31
0.0
  0
LINE
  5
120
100
AcDbEntity
  8
0
 62
7
100
AcDbLine
 10
59.174947
 20
-44.600553
 30
0.0
 11
59.174947
 21
-30.598796
 31
0.0
  0
LINE
  5
121
100
AcDbEntity
  8
0
 62
7
100
AcDbLine
 10
87.749961
 20
-49.648805
 30
0.0
 11
101.750131
 21
-49.648805
 31
0.0
  0
LINE
  5
122
100
AcDbEntity
  8
0
 62
7
100
AcDbLine
 10
63.937449
 20
-25.550544
 30
0.0
 11
63.937449
 21
-11.549580
 31
0.0
  0
LINE
  5
123
100
AcDbEntity
  8
0
 62
7
100
AcDbLine
 10
100.649993
 20
-104.274707
 30
0.0
 11
184.100149
 21
-104.274707
 31
0.0
  0
LINE
  5
124
100
AcDbEntity
  8
0
 62
7
100
AcDbLine
 10
77.937619
 20
-25.550544
 30
0.0
 11
63.937449
 21
-25.550544
 31
0.0
  0
LINE
  5
125
100
AcDbEntity
  8
0
 62
7
100
AcDbLine
 10
73.175116
 20
-68.698815
 30
0.0
 11
73.175116
 21
-82.700572
 31
0.0
  0
LINE
  5
126
100
AcDbEntity
  8
0
 62
7
100
AcDbLine
 10
254.150207
 20
-49.648805
 30
0.0
 11
254.150207
 21
-63.650563
 31
0.0
  0
LINE
  5
127
100
AcDbEntity
  8
0
 62
7
100
AcDbLine
 10
101.750131
 20
-49.648805
 30
0.0
 11
101.750131
 21
-63.650563
 31
0.0
  0
LINE
  5
128
100
AcDbEntity
  8
0
 62
7
100
AcDbLine
 10
259.200049
 20
-68.698815
 30
0.0
 11
259.200049
 21
-82.700572
 31
0.0
  0
LINE
  5
129
100
AcDbEntity
  8
0
 62
7
100
AcDbLine
 10
221.100029
 20
-49.648805
 30
0.0
 11
235.100202
 21
-49.648805
 31
0.0
  0
LINE
  5
12a
100
AcDbEntity
  8
0
 62
7
100
AcDbLine
 10
30.313124
 20
-68.698815
 30
0.0
 11
30.313124
 21
-82.700572
 31
0.0
  0
LINE
  5
12b
100
AcDbEntity
  8
0
 62
7
100
AcDbLine
 10
104.274968
 20
-27.098795
 30
0.0
 11
104.274968
 21
-30.598796
 31
0.0
  0
LINE
  5
12c
100
AcDbEntity
  8
0
 62
7
100
AcDbLine
 10
259.200049
 20
-63.650563
 30
0.0
 11
273.200222
 21
-63.650563
 31
0.0
  0
LINE
  5
12d
100
AcDbEntity
  8
0
 62
7
100
AcDbLine
 10
116.325051
 20
-30.598796
 30
0.0
 11
130.325065
 21
-30.598796
 31
0.0
  0
LINE
  5
12e
100
AcDbEntity
  8
0
 62
7
100
AcDbLine
 10
158.900082
 20
-49.648805
 30
0.0
 11
158.900082
 21
-63.650563
 31
0.0
  0
LINE
  5
12f
100
AcDbEntity
  8
0
 62
7
100
AcDbLine
 10
30.313124
 20
-30.598796
 30
0.0
 11
30.313124
 21
-44.600553
 31
0.0
  0
LINE
  5
130
100
AcDbEntity
  8
0
 62
7
100
AcDbLine
 10
186.100089
 20
-108.274630
 30
0.0
 11
234.100112
 21
-108.274630
 31
0.0
  0
LINE
  5
131
100
AcDbEntity
  8
0
 62
7
100
AcDbLine
 10
254.150207
 20
-11.549580
 30
0.0
 11
254.150207
 21
-25.550544
 31
0.0
  0
LINE
  5
132
100
AcDbEntity
  8
0
 62
7
100
AcDbLine
 10
5.025001
 20
-45.149590
 30
0.0
 11
5.025001
 21
-68.149619
 31
0.0
  0
LINE
  5
133
100
AcDbEntity
  8
0
 62
7
100
AcDbLine
 10
44.600102
 20
-63.650563
 30
0.0
 11
30.599933
 21
-63.650563
 31
0.0
  0
LINE
  5
134
100
AcDbEntity
  8
0
 62
7
100
AcDbLine
 10
235.100202
 20
-25.550544
 30
0.0
 11
221.100029
 21
-25.550544
 31
0.0
  0
LINE
  5
135
100
AcDbEntity
  8
0
 62
7
100
AcDbLine
 10
106.512638
 20
-101.750582
 30
0.0
 11
92.512463
 21
-101.750582
 31
0.0
  0
LINE
  5
136
100
AcDbEntity
  8
0
 62
7
100
AcDbLine
 10
111.275139
 20
-68.698815
 30
0.0
 11
111.275139
 21
-82.700572
 31
0.0
  0
LINE
  5
137
100
AcDbEntity
  8
0
 62
7
100
AcDbLine
 10
82.700121
 20
-49.648805
 30
0.0
 11
82.700121
 21
-63.650563
 31
0.0
  0
LINE
  5
138
100
AcDbEntity
  8
0
 62
7
100
AcDbLine
 10
92.225126
 20
-30.598796
 30
0.0
 11
92.225126
 21
-44.600553
 31
0.0
  0
LINE
  5
139
100
AcDbEntity
  8
0
 62
7
100
AcDbLine
 10
144.900068
 20
-49.648805
 30
0.0
 11
158.900082
 21
-49.648805
 31
0.0
  0
SPLINE
  5
13a
100
AcDbEntity
  8
0
 62
7
100
AcDbSpline
 70
8
 71
3
 72
8
 73
4
 74
0
 40
0
 40
0
 40
0
 40
0
 40
1
 40
1
 40
1
 40
1
 10
185.100089
 20
-105.274620
 30
0.0
 10
185.100089
 20
-104.722341
 30
0.0
 10
184.652369
 20
-104.274629
 30
0.0
 10
184.100089
 20
-104.274628
 30
0.0
  0
LINE
  5
13b
100
AcDbEntity
  8
0
 62
7
100
AcDbLine
 10
11.549923
 20
-49.648805
 30
0.0
 11
25.550093
 21
-49.648805
 31
0.0
  0
LINE
  5
13c
100
AcDbEntity
  8
0
 62
7
100
AcDbLine
 10
130.325065
 20
-68.698815
 30
0.0
 11
130.325065
 21
-82.700572
 31
0.0
  0
LINE
  5
13d
100
AcDbEntity
  8
0
 62
7
100
AcDbLine
 10
221.100029
 20
-63.650563
 30
0.0
 11
221.100029
 21
-49.648805
 31
0.0
  0
LINE
  5
13e
100
AcDbEntity
  8
0
 62
7
100
AcDbLine
 10
240.150304
 20
-25.550544
 30
0.0
 11
240.150034
 21
-11.549580
 31
0.0
  0
LINE
  5
13f
100
AcDbEntity
  8
0
 62
7
100
AcDbLine
 10
187.475170
 20
-44.600553
 30
0.0
 11
173.475006
 21
-44.600553
 31
0.0
  0
LINE
  5
140
100
AcDbEntity
  8
0
 62
7
100
AcDbLine
 10
197.000182
 20
-49.648805
 30
0.0
 11
197.000182
 21
-63.650563
 31
0.0
  0
LINE
  5
141
100
AcDbEntity
  8
0
 62
7
100
AcDbLine
 10
254.150207
 20
-68.698815
 30
0.0
 11
254.150207
 21
-82.700572
 31
0.0
  0
SPLINE
  5
142
100
AcDbEntity
  8
0
 62
7
100
AcDbSpline
 70
8
 71
3
 72
8
 73
4
 74
0
 40
0
 40
0
 40
0
 40
0
 40
1
 40
1
 40
1
 40
1
 10
278.725134
 20
-69.149613
 30
0.0
 10
279.277424
 20
-69.149613
 30
0.0
 10
279.725134
 20
-68.701903
 30
0.0
 10
279.725144
 20
-68.149619
 30
0.0
  0
LINE
  5
143
100
AcDbEntity
  8
0
 62
7
100
AcDbLine
 10
168.712585
 20
-25.550544
 30
0.0
 11
168.712585
 21
-11.549580
 31
0.0
  0
LINE
  5
144
100
AcDbEntity
  8
0
 62
7
100
AcDbLine
 10
216.050187
 20
-49.648805
 30
0.0
 11
216.050187
 21
-63.650563
 31
0.0
  0
LINE
  5
145
100
AcDbEntity
  8
0
 62
7
100
AcDbLine
 10
168.425085
 20
-30.598796
 30
0.0
 11
168.425085
 21
-44.600553
 31
0.0
  0
SPLINE
  5
146
100
AcDbEntity
  8
0
 62
7
100
AcDbSpline
 70
8
 71
3
 72
8
 73
4
 74
0
 40
0
 40
0
 40
0
 40
0
 40
1
 40
1
 40
1
 40
1
 10
9.025003
 20
-70.149605
 30
0.0
 10
9.024999
 20
-69.597323
 30
0.0
 10
8.577284
 20
-69.149613
 30
0.0
 10
8.025002
 20
-69.149613
 30
0.0
  0
LINE
  5
147
100
AcDbEntity
  8
0
 62
7
100
AcDbLine
 10
9.025003
 20
-10.024576
 30
0.0
 11
9.025003
 21
-43.149603
 31
0.0
  0
LINE
  5
148
100
AcDbEntity
  8
0
 62
7
100
AcDbLine
 10
97.274966
 20
-44.600553
 30
0.0
 11
97.274966
 21
-27.098795
 31
0.0
  0
LINE
  5
149
100
AcDbEntity
  8
0
 62
7
100
AcDbLine
 10
275.725133
 20
-10.024520
 30
0.0
 11
275.725133
 21
-43.149603
 31
0.0
  0
LINE
  5
14a
100
AcDbEntity
  8
0
 62
7
100
AcDbLine
 10
168.425085
 20
-44.600553
 30
0.0
 11
154.425071
 21
-44.600553
 31
0.0
  0
SPLINE
  5
14b
100
AcDbEntity
  8
0
 62
7
100
AcDbSpline
 70
8
 71
3
 72
8
 73
4
 74
0
 40
0
 40
0
 40
0
 40
0
 40
1
 40
1
 40
1
 40
1
 10
275.432243
 20
-9.317468
 30
0.0
 10
275.244703
 20
-9.129932
 30
0.0
 10
274.990353
 20
-9.024575
 30
0.0
 10
274.725133
 20
-9.024575
 30
0.0
  0
LINE
  5
14c
100
AcDbEntity
  8
0
 62
7
100
AcDbLine
 10
149.662570
 20
-25.550544
 30
0.0
 11
149.662570
 21
-11.549580
 31
0.0
  0
LINE
  5
14d
100
AcDbEntity
  8
0
 62
7
100
AcDbLine
 10
177.950167
 20
-63.650563
 30
0.0
 11
163.950083
 21
-63.650563
 31
0.0
  0
LINE
  5
14e
100
AcDbEntity
  8
0
 62
7
100
AcDbLine
 10
235.100112
 20
-107.274630
 30
0.0
 11
235.100112
 21
-105.274620
 31
0.0
  0
LINE
  5
14f
100
AcDbEntity
  8
0
 62
7
100
AcDbLine
 10
40.124938
 20
-68.698815
 30
0.0
 11
54.125107
 21
-68.698815
 31
0.0
  0
SPLINE
  5
150
100
AcDbEntity
  8
0
 62
7
100
AcDbSpline
 70
8
 71
3
 72
8
 73
4
 74
0
 40
0
 40
0
 40
0
 40
0
 40
1
 40
1
 40
1
 40
1
 10
99.650050
 20
-6.024574
 30
0.0
 10
99.650050
 20
-5.759357
 30
0.0
 10
99.544693
 20
-5.505004
 30
0.0
 10
99.357156
 20
-5.317467
 30
0.0
  0
LINE
  5
151
100
AcDbEntity
  8
0
 62
7
100
AcDbLine
 10
120.800062
 20
-49.648805
 30
0.0
 11
120.800062
 21
-63.650563
 31
0.0
  0
LINE
  5
152
100
AcDbEntity
  8
0
 62
7
100
AcDbLine
 10
273.200222
 20
-63.650563
 30
0.0
 11
273.200222
 21
-49.648805
 31
0.0
  0
LINE
  5
153
100
AcDbEntity
  8
0
 62
7
100
AcDbLine
 10
186.100129
 20
-5.024687
 30
0.0
 11
234.100072
 21
-5.024687
 31
0.0
  0
LINE
  5
154
100
AcDbEntity
  8
0
 62
7
100
AcDbLine
 10
25.550093
 20
-49.648805
 30
0.0
 11
25.550093
 21
-63.650563
 31
0.0
  0
SPLINE
  5
155
100
AcDbEntity
  8
0
 62
7
100
AcDbSpline
 70
8
 71
3
 72
8
 73
4
 74
0
 40
0
 40
0
 40
0
 40
0
 40
1
 40
1
 40
1
 40
1
 10
49.650024
 20
-107.274630
 30
0.0
 10
49.650028
 20
-107.826920
 30
0.0
 10
50.097743
 20
-108.274630
 30
0.0
 10
50.650025
 20
-108.274630
 30
0.0
  0
LINE
  5
156
100
AcDbEntity
  8
0
 62
7
100
AcDbLine
 10
139.850067
 20
-63.650563
 30
0.0
 11
125.850063
 21
-63.650563
 31
0.0
  0
LINE
  5
157
100
AcDbEntity
  8
0
 62
7
100
AcDbLine
 10
168.425085
 20
-68.698815
 30
0.0
 11
168.425085
 21
-82.700572
 31
0.0
  0
LINE
  5
158
100
AcDbEntity
  8
0
 62
7
100
AcDbLine
 10
173.475006
 20
-30.598796
 30
0.0
 11
187.475170
 21
-30.598796
 31
0.0
  0
LINE
  5
159
100
AcDbEntity
  8
0
 62
7
100
AcDbLine
 10
144.900068
 20
-63.650563
 30
0.0
 11
144.900068
 21
-49.648805
 31
0.0
  0
LINE
  5
15a
100
AcDbEntity
  8
0
 62
7
100
AcDbLine
 10
82.700121
 20
-63.650563
 30
0.0
 11
68.699952
 21
-63.650563
 31
0.0
  0
LINE
  5
15b
100
AcDbEntity
  8
0
 62
7
100
AcDbLine
 10
111.275139
 20
-44.600553
 30
0.0
 11
97.274966
 21
-44.600553
 31
0.0
  0
LINE
  5
15c
100
AcDbEntity
  8
0
 62
7
100
AcDbLine
 10
59.174947
 20
-30.598796
 30
0.0
 11
73.175116
 21
-30.598796
 31
0.0
  0
LINE
  5
15d
100
AcDbEntity
  8
0
 62
7
100
AcDbLine
 10
273.200222
 20
-68.698815
 30
0.0
 11
273.200222
 21
-82.700572
 31
0.0
  0
LINE
  5
15e
100
AcDbEntity
  8
0
 62
7
100
AcDbLine
 10
54.125107
 20
-30.598796
 30
0.0
 11
54.125107
 21
-44.600553
 31
0.0
  0
LINE
  5
15f
100
AcDbEntity
  8
0
 62
7
100
AcDbLine
 10
182.712668
 20
-11.549580
 30
0.0
 11
182.712668
 21
-25.550544
 31
0.0
  0
SPLINE
  5
160
100
AcDbEntity
  8
0
 62
7
100
AcDbSpline
 70
8
 71
3
 72
8
 73
4
 74
0
 40
0
 40
0
 40
0
 40
0
 40
1
 40
1
 40
1
 40
1
 10
8.025002
 20
-44.149596
 30
0.0
 10
8.577284
 20
-44.149597
 30
0.0
 10
9.024999
 20
-43.701886
 30
0.0
 10
9.025003
 20
-43.149603
 30
0.0
  0
LINE
  5
161
100
AcDbEntity
  8
0
 62
7
100
AcDbLine
 10
135.375066
 20
-30.598796
 30
0.0
 11
149.375080
 21
-30.598796
 31
0.0
  0
LINE
  5
162
100
AcDbEntity
  8
0
 62
7
100
AcDbLine
 10
92.225126
 20
-82.700572
 30
0.0
 11
78.224957
 21
-82.700572
 31
0.0
  0
SPLINE
  5
163
100
AcDbEntity
  8
0
 62
7
100
AcDbSpline
 70
8
 71
3
 72
8
 73
4
 74
0
 40
0
 40
0
 40
0
 40
0
 40
1
 40
1
 40
1
 40
1
 10
100.650049
 20
-104.274628
 30
0.0
 10
100.097768
 20
-104.274629
 30
0.0
 10
99.650054
 20
-104.722341
 30
0.0
 10
99.650050
 20
-105.274620
 30
0.0
  0
LINE
  5
164
100
AcDbEntity
  8
0
 62
7
100
AcDbLine
 10
163.662583
 20
-11.549580
 30
0.0
 11
163.662583
 21
-25.550544
 31
0.0
  0
LINE
  5
165
100
AcDbEntity
  8
0
 62
7
100
AcDbLine
 10
259.200049
 20
-82.700572
 30
0.0
 11
273.200222
 21
-82.700572
 31
0.0
  0
LINE
  5
166
100
AcDbEntity
  8
0
 62
7
100
AcDbLine
 10
154.425071
 20
-68.698815
 30
0.0
 11
168.425085
 21
-68.698815
 31
0.0
  0
LINE
  5
167
100
AcDbEntity
  8
0
 62
7
100
AcDbLine
 10
130.325065
 20
-44.600553
 30
0.0
 11
116.325051
 21
-44.600553
 31
0.0
  0
LINE
  5
168
100
AcDbEntity
  8
0
 62
7
100
AcDbLine
 10
183.000008
 20
-49.648805
 30
0.0
 11
197.000182
 21
-49.648805
 31
0.0
  0
LINE
  5
169
100
AcDbEntity
  8
0
 62
7
100
AcDbLine
 10
40.124938
 20
-82.700572
 30
0.0
 11
40.124938
 21
-68.698815
 31
0.0
  0
LINE
  5
16a
100
AcDbEntity
  8
0
 62
7
100
AcDbLine
 10
97.274966
 20
-68.698815
 30
0.0
 11
111.275139
 21
-68.698815
 31
0.0
  0
LINE
  5
16b
100
AcDbEntity
  8
0
 62
7
100
AcDbLine
 10
235.100202
 20
-30.598796
 30
0.0
 11
235.100202
 21
-44.600553
 31
0.0
  0
LINE
  5
16c
100
AcDbEntity
  8
0
 62
7
100
AcDbLine
 10
254.150207
 20
-63.650563
 30
0.0
 11
240.150034
 21
-63.650563
 31
0.0
  0
LINE
  5
16d
100
AcDbEntity
  8
0
 62
7
100
AcDbLine
 10
235.100202
 20
-11.549580
 30
0.0
 11
235.100202
 21
-25.550544
 31
0.0
  0
LINE
  5
16e
100
AcDbEntity
  8
0
 62
7
100
AcDbLine
 10
92.512463
 20
-101.750582
 30
0.0
 11
92.512463
 21
-87.748825
 31
0.0
  0
LINE
  5
16f
100
AcDbEntity
  8
0
 62
7
100
AcDbLine
 10
197.287512
 20
-30.598796
 30
0.0
 11
211.287686
 21
-30.598796
 31
0.0
  0
LINE
  5
170
100
AcDbEntity
  8
0
 62
7
100
AcDbLine
 10
116.325051
 20
-68.698815
 30
0.0
 11
130.325065
 21
-68.698815
 31
0.0
  0
LINE
  5
171
100
AcDbEntity
  8
0
 62
7
100
AcDbLine
 10
144.900068
 20
-101.750582
 30
0.0
 11
144.900068
 21
-87.748825
 31
0.0
  0
LINE
  5
172
100
AcDbEntity
  8
0
 62
7
100
AcDbLine
 10
211.287686
 20
-68.698815
 30
0.0
 11
211.287686
 21
-82.700572
 31
0.0
  0
LINE
  5
173
100
AcDbEntity
  8
0
 62
7
100
AcDbLine
 10
130.325065
 20
-82.700572
 30
0.0
 11
116.325051
 21
-82.700572
 31
0.0
  0
LINE
  5
174
100
AcDbEntity
  8
0
 62
7
100
AcDbLine
 10
236.100063
 20
-104.274707
 30
0.0
 11
274.725013
 21
-104.274707
 31
0.0
  0
LINE
  5
175
100
AcDbEntity
  8
0
 62
7
100
AcDbLine
 10
144.900068
 20
-87.748825
 30
0.0
 11
158.900082
 21
-87.748825
 31
0.0
  0
LINE
  5
176
100
AcDbEntity
  8
0
 62
7
100
AcDbLine
 10
68.699952
 20
-49.648805
 30
0.0
 11
82.700121
 21
-49.648805
 31
0.0
  0
LINE
  5
177
100
AcDbEntity
  8
0
 62
7
100
AcDbLine
 10
40.124938
 20
-44.600553
 30
0.0
 11
40.124938
 21
-30.598796
 31
0.0
  0
LINE
  5
178
100
AcDbEntity
  8
0
 62
7
100
AcDbLine
 10
154.425071
 20
-82.700572
 30
0.0
 11
154.425071
 21
-68.698815
 31
0.0
  0
LINE
  5
179
100
AcDbEntity
  8
0
 62
7
100
AcDbLine
 10
121.087562
 20
-87.748825
 30
0.0
 11
121.087562
 21
-101.750582
 31
0.0
  0
LINE
  5
17a
100
AcDbEntity
  8
0
 62
7
100
AcDbLine
 10
197.000182
 20
-63.650563
 30
0.0
 11
183.000008
 21
-63.650563
 31
0.0
  0
LINE
  5
17b
100
AcDbEntity
  8
0
 62
7
100
AcDbLine
 10
197.287512
 20
-82.700572
 30
0.0
 11
197.287512
 21
-68.698815
 31
0.0
  0
LINE
  5
17c
100
AcDbEntity
  8
0
 62
7
100
AcDbLine
 10
106.512638
 20
-87.748825
 30
0.0
 11
106.512638
 21
-101.750582
 31
0.0
  0
LINE
  5
17d
100
AcDbEntity
  8
0
 62
7
100
AcDbLine
 10
73.175116
 20
-82.700572
 30
0.0
 11
59.174947
 21
-82.700572
 31
0.0
  0
LINE
  5
17e
100
AcDbEntity
  8
0
 62
7
100
AcDbLine
 10
235.100202
 20
-6.024548
 30
0.0
 11
235.100112
 21
-8.024577
 31
0.0
  0
LINE
  5
17f
100
AcDbEntity
  8
0
 62
7
100
AcDbLine
 10
135.375066
 20
-44.600553
 30
0.0
 11
135.375066
 21
-30.598796
 31
0.0
  0
LINE
  5
180
100
AcDbEntity
  8
0
 62
7
100
AcDbLine
 10
149.375080
 20
-82.700572
 30
0.0
 11
135.375066
 21
-82.700572
 31
0.0
  0
LINE
  5
181
100
AcDbEntity
  8
0
 62
7
100
AcDbLine
 10
273.200222
 20
-25.550544
 30
0.0
 11
259.200049
 21
-25.550544
 31
0.0
  0
SPLINE
  5
182
100
AcDbEntity
  8
0
 62
7
100
AcDbSpline
 70
8
 71
3
 72
8
 73
4
 74
0
 40
0
 40
0
 40
0
 40
0
 40
1
 40
1
 40
1
 40
1
 10
186.100089
 20
-5.024573
 30
0.0
 10
185.834879
 20
-5.024573
 30
0.0
 10
185.580519
 20
-5.129930
 30
0.0
 10
185.392989
 20
-5.317467
 30
0.0
  0
SPLINE
  5
183
100
AcDbEntity
  8
0
 62
7
100
AcDbSpline
 70
8
 71
3
 72
8
 73
4
 74
0
 40
0
 40
0
 40
0
 40
0
 40
1
 40
1
 40
1
 40
1
 10
10.025005
 20
-9.024575
 30
0.0
 10
9.759788
 20
-9.024575
 30
0.0
 10
9.505434
 20
-9.129932
 30
0.0
 10
9.317895
 20
-9.317468
 30
0.0
  0
LINE
  5
184
100
AcDbEntity
  8
0
 62
7
100
AcDbLine
 10
168.712585
 20
-11.549580
 30
0.0
 11
182.712668
 21
-11.549580
 31
0.0
  0
LINE
  5
185
100
AcDbEntity
  8
0
 62
7
100
AcDbLine
 10
279.725144
 20
-45.149590
 30
0.0
 11
279.725144
 21
-68.149619
 31
0.0
  0
LINE
  5
186
100
AcDbEntity
  8
0
 62
7
100
AcDbLine
 10
240.150034
 20
-44.600553
 30
0.0
 11
240.150034
 21
-30.598796
 31
0.0
  0
LINE
  5
187
100
AcDbEntity
  8
0
 62
7
100
AcDbLine
 10
221.100029
 20
-82.700572
 30
0.0
 11
221.100029
 21
-68.698815
 31
0.0
  0
LINE
  5
188
100
AcDbEntity
  8
0
 62
7
100
AcDbLine
 10
139.850067
 20
-49.648805
 30
0.0
 11
139.850067
 21
-63.650563
 31
0.0
  0
LINE
  5
189
100
AcDbEntity
  8
0
 62
7
100
AcDbLine
 10
82.700121
 20
-87.748825
 30
0.0
 11
82.700121
 21
-101.750582
 31
0.0
  0
SPLINE
  5
18a
100
AcDbEntity
  8
0
 62
7
100
AcDbSpline
 70
8
 71
3
 72
8
 73
4
 74
0
 40
0
 40
0
 40
0
 40
0
 40
1
 40
1
 40
1
 40
1
 10
99.357156
 20
-5.317467
 30
0.0
 10
99.169620
 20
-5.129930
 30
0.0
 10
98.915265
 20
-5.024573
 30
0.0
 10
98.650049
 20
-5.024573
 30
0.0
  0
LINE
  5
18b
100
AcDbEntity
  8
0
 62
7
100
AcDbLine
 10
59.174947
 20
-68.698815
 30
0.0
 11
73.175116
 21
-68.698815
 31
0.0
  0
LINE
  5
18c
100
AcDbEntity
  8
0
 62
7
100
AcDbLine
 10
182.712668
 20
-25.550544
 30
0.0
 11
168.712585
 21
-25.550544
 31
0.0
  0
LINE
  5
18d
100
AcDbEntity
  8
0
 62
7
100
AcDbLine
 10
50.650025
 20
-108.274630
 30
0.0
 11
98.650049
 21
-108.274630
 31
0.0
  0
LINE
  5
18e
100
AcDbEntity
  8
0
 62
7
100
AcDbLine
 10
221.100029
 20
-30.598796
 30
0.0
 11
235.100202
 21
-30.598796
 31
0.0
  0
LINE
  5
18f
100
AcDbEntity
  8
0
 62
7
100
AcDbLine
 10
211.287686
 20
-82.700572
 30
0.0
 11
197.287512
 21
-82.700572
 31
0.0
  0
LINE
  5
190
100
AcDbEntity
  8
0
 62
7
100
AcDbLine
 10
111.275139
 20
-30.598796
 30
0.0
 11
111.275139
 21
-44.600553
 31
0.0
  0
SPLINE
  5
191
100
AcDbEntity
  8
0
 62
7
100
AcDbSpline
 70
8
 71
3
 72
8
 73
4
 74
0
 40
0
 40
0
 40
0
 40
0
 40
1
 40
1
 40
1
 40
1
 10
274.725133
 20
-104.274628
 30
0.0
 10
275.277423
 20
-104.274628
 30
0.0
 10
275.725133
 20
-103.826917
 30
0.0
 10
275.725133
 20
-103.274635
 30
0.0
  0
LINE
  5
192
100
AcDbEntity
  8
0
 62
7
100
AcDbLine
 10
58.887610
 20
-11.549580
 30
0.0
 11
58.887610
 21
-25.550544
 31
0.0
  0
SPLINE
  5
193
100
AcDbEntity
  8
0
 62
7
100
AcDbSpline
 70
8
 71
3
 72
8
 73
4
 74
0
 40
0
 40
0
 40
0
 40
0
 40
1
 40
1
 40
1
 40
1
 10
235.100112
 20
-6.024574
 30
0.0
 10
235.100112
 20
-5.759357
 30
0.0
 10
234.994762
 20
-5.505004
 30
0.0
 10
234.807222
 20
-5.317467
 30
0.0
  0
LINE
  5
194
100
AcDbEntity
  8
0
 62
7
100
AcDbLine
 10
111.275139
 20
-82.700572
 30
0.0
 11
97.274966
 21
-82.700572
 31
0.0
  0
LINE
  5
195
100
AcDbEntity
  8
0
 62
7
100
AcDbLine
 10
158.900082
 20
-87.748825
 30
0.0
 11
158.900082
 21
-101.750582
 31
0.0
  0
LINE
  5
196
100
AcDbEntity
  8
0
 62
7
100
AcDbLine
 10
116.325051
 20
-44.600553
 30
0.0
 11
116.325051
 21
-30.598796
 31
0.0
  0
LINE
  5
197
100
AcDbEntity
  8
0
 62
7
100
AcDbLine
 10
68.699952
 20
-101.750582
 30
0.0
 11
68.699952
 21
-87.748825
 31
0.0
  0
LINE
  5
198
100
AcDbEntity
  8
0
 62
7
100
AcDbLine
 10
68.699952
 20
-63.650563
 30
0.0
 11
68.699952
 21
-49.648805
 31
0.0
  0
LINE
  5
199
100
AcDbEntity
  8
0
 62
7
100
AcDbLine
 10
104.274968
 20
-30.598796
 30
0.0
 11
111.275139
 21
-30.598796
 31
0.0
  0
LINE
  5
19a
100
AcDbEntity
  8
0
 62
7
100
AcDbLine
 10
221.100029
 20
-68.698815
 30
0.0
 11
235.100202
 21
-68.698815
 31
0.0
  0
LINE
  5
19b
100
AcDbEntity
  8
0
 62
7
100
AcDbLine
 10
40.124938
 20
-30.598796
 30
0.0
 11
54.125107
 21
-30.598796
 31
0.0
  0
LINE
  5
19c
100
AcDbEntity
  8
0
 62
7
100
AcDbLine
 10
208.906435
 20
-25.550544
 30
0.0
 11
194.906262
 21
-25.550544
 31
0.0
  0
LINE
  5
19d
100
AcDbEntity
  8
0
 62
7
100
AcDbLine
 10
259.200049
 20
-30.598796
 30
0.0
 11
259.200049
 21
-44.600553
 31
0.0
  0
LINE
  5
19e
100
AcDbEntity
  8
0
 62
7
100
AcDbLine
 10
116.325051
 20
-82.700572
 30
0.0
 11
116.325051
 21
-68.698815
 31
0.0
  0
LINE
  5
19f
100
AcDbEntity
  8
0
 62
7
100
AcDbLine
 10
259.200049
 20
-49.648805
 30
0.0
 11
259.200049
 21
-63.650563
 31
0.0
  0
LINE
  5
1a0
100
AcDbEntity
  8
0
 62
7
100
AcDbLine
 10
130.325065
 20
-30.598796
 30
0.0
 11
130.325065
 21
-44.600553
 31
0.0
  0
LINE
  5
1a1
100
AcDbEntity
  8
0
 62
7
100
AcDbLine
 10
278.725134
 20
-69.149613
 30
0.0
 11
276.725143
 21
-69.149613
 31
0.0
  0
LINE
  5
1a2
100
AcDbEntity
  8
0
 62
7
100
AcDbLine
 10
16.312954
 20
-44.600553
 30
0.0
 11
16.312954
 21
-30.598796
 31
0.0
  0
LINE
  5
1a3
100
AcDbEntity
  8
0
 62
7
100
AcDbLine
 10
240.150034
 20
-49.648805
 30
0.0
 11
254.150207
 21
-49.648805
 31
0.0
  0
LINE
  5
1a4
100
AcDbEntity
  8
0
 62
7
100
AcDbLine
 10
185.100089
 20
-105.274620
 30
0.0
 11
185.100089
 21
-107.274630
 31
0.0
  0
LINE
  5
1a5
100
AcDbEntity
  8
0
 62
7
100
AcDbLine
 10
273.200222
 20
-49.648805
 30
0.0
 11
259.200049
 21
-49.648805
 31
0.0
  0
SPLINE
  5
1a6
100
AcDbEntity
  8
0
 62
7
100
AcDbSpline
 70
8
 71
3
 72
8
 73
4
 74
0
 40
0
 40
0
 40
0
 40
0
 40
1
 40
1
 40
1
 40
1
 10
184.100089
 20
-9.024575
 30
0.0
 10
184.652379
 20
-9.024574
 30
0.0
 10
185.100089
 20
-8.576860
 30
0.0
 10
185.100089
 20
-8.024577
 30
0.0
  0
LINE
  5
1a7
100
AcDbEntity
  8
0
 62
7
100
AcDbLine
 10
240.150034
 20
-82.700572
 30
0.0
 11
240.150034
 21
-68.698815
 31
0.0
  0
LINE
  5
1a8
100
AcDbEntity
  8
0
 62
7
100
AcDbLine
 10
183.000008
 20
-63.650563
 30
0.0
 11
183.000008
 21
-49.648805
 31
0.0
  0
LINE
  5
1a9
100
AcDbEntity
  8
0
 62
7
100
AcDbLine
 10
149.375080
 20
-44.600553
 30
0.0
 11
135.375066
 21
-44.600553
 31
0.0
  0
LINE
  5
1aa
100
AcDbEntity
  8
0
 62
7
100
AcDbLine
 10
259.200049
 20
-11.549580
 30
0.0
 11
273.200222
 21
-11.549580
 31
0.0
  0
LINE
  5
1ab
100
AcDbEntity
  8
0
 62
7
100
AcDbLine
 10
25.550093
 20
-63.650563
 30
0.0
 11
11.549923
 21
-63.650563
 31
0.0
  0
LINE
  5
1ac
100
AcDbEntity
  8
0
 62
7
100
AcDbLine
 10
221.100029
 20
-44.600553
 30
0.0
 11
221.100029
 21
-30.598796
 31
0.0
  0
LINE
  5
1ad
100
AcDbEntity
  8
0
 62
7
100
AcDbLine
 10
49.649942
 20
-8.024535
 30
0.0
 11
49.649942
 21
-6.024548
 31
0.0
  0
LINE
  5
1ae
100
AcDbEntity
  8
0
 62
7
100
AcDbLine
 10
30.599933
 20
-49.648805
 30
0.0
 11
44.600102
 21
-49.648805
 31
0.0
  0
LINE
  5
1af
100
AcDbEntity
  8
0
 62
7
100
AcDbLine
 10
125.850063
 20
-63.650563
 30
0.0
 11
125.850063
 21
-49.648805
 31
0.0
  0
LINE
  5
1b0
100
AcDbEntity
  8
0
 62
7
100
AcDbLine
 10
92.225126
 20
-68.698815
 30
0.0
 11
92.225126
 21
-82.700572
 31
0.0
  0
LINE
  5
1b1
100
AcDbEntity
  8
0
 62
7
100
AcDbLine
 10
158.900082
 20
-63.650563
 30
0.0
 11
144.900068
 21
-63.650563
 31
0.0
  0
LINE
  5
1b2
100
AcDbEntity
  8
0
 62
7
100
AcDbLine
 10
135.375066
 20
-82.700572
 30
0.0
 11
135.375066
 21
-68.698815
 31
0.0
  0
LINE
  5
1b3
100
AcDbEntity
  8
0
 62
7
100
AcDbLine
 10
97.274966
 20
-27.098795
 30
0.0
 11
104.274968
 21
-27.098795
 31
0.0
  0
LINE
  5
1b4
100
AcDbEntity
  8
0
 62
7
100
AcDbLine
 10
44.887440
 20
-25.550544
 30
0.0
 11
44.887440
 21
-11.549580
 31
0.0
  0
LINE
  5
1b5
100
AcDbEntity
  8
0
 62
7
100
AcDbLine
 10
32.694111
 20
-25.550544
 30
0.0
 11
18.693941
 21
-25.550544
 31
0.0
  0
LINE
  5
1b6
100
AcDbEntity
  8
0
 62
7
100
AcDbLine
 10
149.375080
 20
-30.598796
 30
0.0
 11
149.375080
 21
-44.600553
 31
0.0
  0
LINE
  5
1b7
100
AcDbEntity
  8
0
 62
7
100
AcDbLine
 10
59.174947
 20
-82.700572
 30
0.0
 11
59.174947
 21
-68.698815
 31
0.0
  0
LINE
  5
1b8
100
AcDbEntity
  8
0
 62
7
100
AcDbLine
 10
30.313124
 20
-82.700572
 30
0.0
 11
16.312954
 21
-82.700572
 31
0.0
  0
LINE
  5
1b9
100
AcDbEntity
  8
0
 62
7
100
AcDbLine
 10
78.224957
 20
-30.598796
 30
0.0
 11
92.225126
 21
-30.598796
 31
0.0
  0
SPLINE
  5
1ba
100
AcDbEntity
  8
0
 62
7
100
AcDbSpline
 70
8
 71
3
 72
8
 73
4
 74
0
 40
0
 40
0
 40
0
 40
0
 40
1
 40
1
 40
1
 40
1
 10
275.725133
 20
-43.149603
 30
0.0
 10
275.725143
 20
-43.701886
 30
0.0
 10
276.172853
 20
-44.149597
 30
0.0
 10
276.725143
 20
-44.149596
 30
0.0
  0
SPLINE
  5
1bb
100
AcDbEntity
  8
0
 62
7
100
AcDbSpline
 70
8
 71
3
 72
8
 73
4
 74
0
 40
0
 40
0
 40
0
 40
0
 40
1
 40
1
 40
1
 40
1
 10
5.025001
 20
-68.149619
 30
0.0
 10
5.025005
 20
-68.701903
 30
0.0
 10
5.472719
 20
-69.149613
 30
0.0
 10
6.025003
 20
-69.149613
 30
0.0
  0
LINE
  5
1bc
100
AcDbEntity
  8
0
 62
7
100
AcDbLine
 10
149.662570
 20
-11.549580
 30
0.0
 11
163.662583
 21
-11.549580
 31
0.0
  0
LINE
  5
1bd
100
AcDbEntity
  8
0
 62
7
100
AcDbLine
 10
100.649993
 20
-9.024661
 30
0.0
 11
184.100149
 21
-9.024661
 31
0.0
  0
LINE
  5
1be
100
AcDbEntity
  8
0
 62
7
100
AcDbLine
 10
78.224957
 20
-68.698815
 30
0.0
 11
92.225126
 21
-68.698815
 31
0.0
  0
LINE
  5
1bf
100
AcDbEntity
  8
0
 62
7
100
AcDbLine
 10
173.475006
 20
-44.600553
 30
0.0
 11
173.475006
 21
-30.598796
 31
0.0
  0
LINE
  5
1c0
100
AcDbEntity
  8
0
 62
7
100
AcDbLine
 10
50.650067
 20
-5.024687
 30
0.0
 11
98.650006
 21
-5.024687
 31
0.0
  0
LINE
  5
1c1
100
AcDbEntity
  8
0
 62
7
100
AcDbLine
 10
68.699952
 20
-87.748825
 30
0.0
 11
82.700121
 21
-87.748825
 31
0.0
  0
LINE
  5
1c2
100
AcDbEntity
  8
0
 62
7
100
AcDbLine
 10
135.087566
 20
-87.748825
 30
0.0
 11
121.087562
 21
-87.748825
 31
0.0
  0
LINE
  5
1c3
100
AcDbEntity
  8
0
 62
7
100
AcDbLine
 10
73.175116
 20
-30.598796
 30
0.0
 11
73.175116
 21
-44.600553
 31
0.0
  0
LINE
  5
1c4
100
AcDbEntity
  8
0
 62
7
100
AcDbLine
 10
18.693941
 20
-25.550544
 30
0.0
 11
18.693941
 21
-11.549580
 31
0.0
  0
LINE
  5
1c5
100
AcDbEntity
  8
0
 62
7
100
AcDbLine
 10
273.200222
 20
-30.598796
 30
0.0
 11
259.200049
 21
-30.598796
 31
0.0
  0
LINE
  5
1c6
100
AcDbEntity
  8
0
 62
7
100
AcDbLine
 10
125.850063
 20
-49.648805
 30
0.0
 11
139.850067
 21
-49.648805
 31
0.0
  0
SPLINE
  5
1c7
100
AcDbEntity
  8
0
 62
7
100
AcDbSpline
 70
8
 71
3
 72
8
 73
4
 74
0
 40
0
 40
0
 40
0
 40
0
 40
1
 40
1
 40
1
 40
1
 10
279.725144
 20
-45.149590
 30
0.0
 10
279.725134
 20
-44.597308
 30
0.0
 10
279.277424
 20
-44.149596
 30
0.0
 10
278.725134
 20
-44.149596
 30
0.0
  0
SPLINE
  5
1c8
100
AcDbEntity
  8
0
 62
7
100
AcDbSpline
 70
8
 71
3
 72
8
 73
4
 74
0
 40
0
 40
0
 40
0
 40
0
 40
1
 40
1
 40
1
 40
1
 10
99.650050
 20
-8.024577
 30
0.0
 10
99.650051
 20
-8.576860
 30
0.0
 10
100.097765
 20
-9.024574
 30
0.0
 10
100.650049
 20
-9.024575
 30
0.0
  0
LINE
  5
1c9
100
AcDbEntity
  8
0
 62
7
100
AcDbLine
 10
240.150034
 20
-63.650563
 30
0.0
 11
240.150034
 21
-49.648805
 31
0.0
  0
LINE
  5
1ca
100
AcDbEntity
  8
0
 62
7
100
AcDbLine
 10
101.750131
 20
-63.650563
 30
0.0
 11
87.749961
 21
-63.650563
 31
0.0
  0
LINE
  5
1cb
100
AcDbEntity
  8
0
 62
7
100
AcDbLine
 10
259.200049
 20
-68.698815
 30
0.0
 11
273.200222
 21
-68.698815
 31
0.0
  0
LINE
  5
1cc
100
AcDbEntity
  8
0
 62
7
100
AcDbLine
 10
54.125107
 20
-68.698815
 30
0.0
 11
54.125107
 21
-82.700572
 31
0.0
  0
SPLINE
  5
1cd
100
AcDbEntity
  8
0
 62
7
100
AcDbSpline
 70
8
 71
3
 72
8
 73
4
 74
0
 40
0
 40
0
 40
0
 40
0
 40
1
 40
1
 40
1
 40
1
 10
275.725133
 20
-10.024576
 30
0.0
 10
275.725133
 20
-9.759359
 30
0.0
 10
275.619783
 20
-9.505006
 30
0.0
 10
275.432243
 20
-9.317468
 30
0.0
  0
LINE
  5
1ce
100
AcDbEntity
  8
0
 62
7
100
AcDbLine
 10
49.649942
 20
-63.650563
 30
0.0
 11
49.649942
 21
-49.648805
 31
0.0
  0
LINE
  5
1cf
100
AcDbEntity
  8
0
 62
7
100
AcDbLine
 10
16.312954
 20
-30.598796
 30
0.0
 11
30.313124
 21
-30.598796
 31
0.0
  0
LINE
  5
1d0
100
AcDbEntity
  8
0
 62
7
100
AcDbLine
 10
54.125107
 20
-44.600553
 30
0.0
 11
40.124938
 21
-44.600553
 31
0.0
  0
SPLINE
  5
1d1
100
AcDbEntity
  8
0
 62
7
100
AcDbSpline
 70
8
 71
3
 72
8
 73
4
 74
0
 40
0
 40
0
 40
0
 40
0
 40
1
 40
1
 40
1
 40
1
 10
6.025003
 20
-44.149596
 30
0.0
 10
5.472719
 20
-44.149596
 30
0.0
 10
5.025005
 20
-44.597308
 30
0.0
 10
5.025001
 20
-45.149590
 30
0.0
  0
LINE
  5
1d2
100
AcDbEntity
  8
0
 62
7
100
AcDbLine
 10
194.906262
 20
-11.549580
 30
0.0
 11
208.906435
 21
-11.549580
 31
0.0
  0
LINE
  5
1d3
100
AcDbEntity
  8
0
 62
7
100
AcDbLine
 10
254.150207
 20
-44.600553
 30
0.0
 11
240.150034
 21
-44.600553
 31
0.0
  0
LINE
  5
1d4
100
AcDbEntity
  8
0
 62
7
100
AcDbLine
 10
273.200222
 20
-30.598796
 30
0.0
 11
273.200222
 21
-44.600553
 31
0.0
  0
LINE
  5
1d5
100
AcDbEntity
  8
0
 62
7
100
AcDbLine
 10
154.425071
 20
-44.600553
 30
0.0
 11
154.425071
 21
-30.598796
 31
0.0
  0
LINE
  5
1d6
100
AcDbEntity
  8
0
 62
7
100
AcDbLine
 10
187.475170
 20
-68.698815
 30
0.0
 11
187.475170
 21
-82.700572
 31
0.0
  0
SPLINE
  5
1d7
100
AcDbEntity
  8
0
 62
7
100
AcDbSpline
 70
8
 71
3
 72
8
 73
4
 74
0
 40
0
 40
0
 40
0
 40
0
 40
1
 40
1
 40
1
 40
1
 10
234.807222
 20
-5.317467
 30
0.0
 10
234.619682
 20
-5.129930
 30
0.0
 10
234.365332
 20
-5.024573
 30
0.0
 10
234.100112
 20
-5.024573
 30
0.0
  0
LINE
  5
1d8
100
AcDbEntity
  8
0
 62
7
100
AcDbLine
 10
211.287686
 20
-44.600553
 30
0.0
 11
197.287512
 21
-44.600553
 31
0.0
  0
LINE
  5
1d9
100
AcDbEntity
  8
0
 62
7
100
AcDbLine
 10
187.475170
 20
-82.700572
 30
0.0
 11
173.475006
 21
-82.700572
 31
0.0
  0
LINE
  5
1da
100
AcDbEntity
  8
0
 62
7
100
AcDbLine
 10
273.200222
 20
-44.600553
 30
0.0
 11
259.200049
 21
-44.600553
 31
0.0
  0
LINE
  5
1db
100
AcDbEntity
  8
0
 62
7
100
AcDbLine
 10
254.150207
 20
-25.550544
 30
0.0
 11
240.150304
 21
-25.550544
 31
0.0
  0
LINE
  5
1dc
100
AcDbEntity
  8
0
 62
7
100
AcDbLine
 10
185.100009
 20
-8.024535
 30
0.0
 11
185.100009
 21
-6.024548
 31
0.0
  0
LINE
  5
1dd
100
AcDbEntity
  8
0
 62
7
100
AcDbLine
 10
135.087566
 20
-101.750582
 30
0.0
 11
135.087566
 21
-87.748825
 31
0.0
  0
LINE
  5
1de
100
AcDbEntity
  8
0
 62
7
100
AcDbLine
 10
177.950167
 20
-49.648805
 30
0.0
 11
177.950167
 21
-63.650563
 31
0.0
  0
LINE
  5
1df
100
AcDbEntity
  8
0
 62
7
100
AcDbLine
 10
92.512463
 20
-87.748825
 30
0.0
 11
106.512638
 21
-87.748825
 31
0.0
  0
LINE
  5
1e0
100
AcDbEntity
  8
0
 62
7
100
AcDbLine
 10
44.887440
 20
-11.549580
 30
0.0
 11
58.887610
 21
-11.549580
 31
0.0
  0
SPLINE
  5
1e1
100
AcDbEntity
  8
0
 62
7
100
AcDbSpline
 70
8
 71
3
 72
8
 73
4
 74
0
 40
0
 40
0
 40
0
 40
0
 40
1
 40
1
 40
1
 40
1
 10
49.650024
 20
-105.274620
 30
0.0
 10
49.650020
 20
-104.722340
 30
0.0
 10
49.202305
 20
-104.274628
 30
0.0
 10
48.650023
 20
-104.274628
 30
0.0
  0
LINE
  5
1e2
100
AcDbEntity
  8
0
 62
7
100
AcDbLine
 10
254.150207
 20
-30.598796
 30
0.0
 11
254.150207
 21
-44.600553
 31
0.0
  0
LINE
  5
1e3
100
AcDbEntity
  8
0
 62
7
100
AcDbLine
 10
275.725133
 20
-70.149605
 30
0.0
 11
275.725133
 21
-103.274582
 31
0.0
  0
LINE
  5
1e4
100
AcDbEntity
  8
0
 62
7
100
AcDbLine
 10
149.375080
 20
-68.698815
 30
0.0
 11
149.375080
 21
-82.700572
 31
0.0
  0
LINE
  5
1e5
100
AcDbEntity
  8
0
 62
7
100
AcDbLine
 10
202.050023
 20
-63.650563
 30
0.0
 11
202.050023
 21
-49.648805
 31
0.0
  0
LINE
  5
1e6
100
AcDbEntity
  8
0
 62
7
100
AcDbLine
 10
97.274966
 20
-82.700572
 30
0.0
 11
97.274966
 21
-68.698815
 31
0.0
  0
LINE
  5
1e7
100
AcDbEntity
  8
0
 62
7
100
AcDbLine
 10
240.150034
 20
-11.549580
 30
0.0
 11
254.150207
 21
-11.549580
 31
0.0
  0
SPLINE
  5
1e8
100
AcDbEntity
  8
0
 62
7
100
AcDbSpline
 70
8
 71
3
 72
8
 73
4
 74
0
 40
0
 40
0
 40
0
 40
0
 40
1
 40
1
 40
1
 40
1
 10
49.942917
 20
-5.317467
 30
0.0
 10
49.755381
 20
-5.505004
 30
0.0
 10
49.650024
 20
-5.759357
 30
0.0
 10
49.650024
 20
-6.024574
 30
0.0
  0
LINE
  5
1e9
100
AcDbEntity
  8
0
 62
7
100
AcDbLine
 10
135.375066
 20
-68.698815
 30
0.0
 11
149.375080
 21
-68.698815
 31
0.0
  0
LINE
  5
1ea
100
AcDbEntity
  8
0
 62
7
100
AcDbLine
 10
32.694111
 20
-11.549580
 30
0.0
 11
32.694111
 21
-25.550544
 31
0.0
  0
LINE
  5
1eb
100
AcDbEntity
  8
0
 62
7
100
AcDbLine
 10
92.225126
 20
-44.600553
 30
0.0
 11
78.224957
 21
-44.600553
 31
0.0
  0
LINE
  5
1ec
100
AcDbEntity
  8
0
 62
7
100
AcDbLine
 10
221.100029
 20
-11.549580
 30
0.0
 11
235.100202
 21
-11.549580
 31
0.0
  0
LINE
  5
1ed
100
AcDbEntity
  8
0
 62
7
100
AcDbLine
 10
11.549923
 20
-63.650563
 30
0.0
 11
11.549923
 21
-49.648805
 31
0.0
  0
LINE
  5
1ee
100
AcDbEntity
  8
0
 62
7
100
AcDbLine
 10
121.087562
 20
-101.750582
 30
0.0
 11
135.087566
 21
-101.750582
 31
0.0
  0
LINE
  5
1ef
100
AcDbEntity
  8
0
 62
7
100
AcDbLine
 10
63.650112
 20
-63.650563
 30
0.0
 11
49.649942
 21
-63.650563
 31
0.0
  0
SPLINE
  5
1f0
100
AcDbEntity
  8
0
 62
7
100
AcDbSpline
 70
8
 71
3
 72
8
 73
4
 74
0
 40
0
 40
0
 40
0
 40
0
 40
1
 40
1
 40
1
 40
1
 10
236.100123
 20
-104.274628
 30
0.0
 10
235.547832
 20
-104.274628
 30
0.0
 10
235.100122
 20
-104.722340
 30
0.0
 10
235.100112
 20
-105.274620
 30
0.0
  0
LINE
  5
1f1
100
AcDbEntity
  8
0
 62
7
100
AcDbLine
 10
168.425085
 20
-82.700572
 30
0.0
 11
154.425071
 21
-82.700572
 31
0.0
  0
LINE
  5
1f2
100
AcDbEntity
  8
0
 62
7
100
AcDbLine
 10
197.287512
 20
-44.600553
 30
0.0
 11
197.287512
 21
-30.598796
 31
0.0
  0
SPLINE
  5
1f3
100
AcDbEntity
  8
0
 62
7
100
AcDbSpline
 70
8
 71
3
 72
8
 73
4
 74
0
 40
0
 40
0
 40
0
 40
0
 40
1
 40
1
 40
1
 40
1
 10
50.650025
 20
-5.024573
 30
0.0
 10
50.384808
 20
-5.024573
 30
0.0
 10
50.130453
 20
-5.129930
 30
0.0
 10
49.942917
 20
-5.317467
 30
0.0
  0
LINE
  5
1f4
100
AcDbEntity
  8
0
 62
7
100
AcDbLine
 10
208.906435
 20
-11.549580
 30
0.0
 11
208.906435
 21
-25.550544
 31
0.0
  0
LINE
  5
1f5
100
AcDbEntity
  8
0
 62
7
100
AcDbLine
 10
240.150034
 20
-30.598796
 30
0.0
 11
254.150207
 21
-30.598796
 31
0.0
  0
SPLINE
  5
1f6
100
AcDbEntity
  8
0
 62
7
100
AcDbSpline
 70
8
 71
3
 72
8
 73
4
 74
0
 40
0
 40
0
 40
0
 40
0
 40
1
 40
1
 40
1
 40
1
 10
235.100112
 20
-8.024577
 30
0.0
 10
235.100122
 20
-8.576861
 30
0.0
 10
235.547832
 20
-9.024575
 30
0.0
 10
236.100123
 20
-9.024575
 30
0.0
  0
LINE
  5
1f7
100
AcDbEntity
  8
0
 62
7
100
AcDbLine
 10
235.100202
 20
-49.648805
 30
0.0
 11
235.100202
 21
-63.650563
 31
0.0
  0
LINE
  5
1f8
100
AcDbEntity
  8
0
 62
7
100
AcDbLine
 10
49.649942
 20
-49.648805
 30
0.0
 11
63.650112
 21
-49.648805
 31
0.0
  0
SPLINE
  5
1f9
100
AcDbEntity
  8
0
 62
7
100
AcDbSpline
 70
8
 71
3
 72
8
 73
4
 74
0
 40
0
 40
0
 40
0
 40
0
 40
1
 40
1
 40
1
 40
1
 10
98.650049
 20
-108.274630
 30
0.0
 10
99.202331
 20
-108.274630
 30
0.0
 10
99.650045
 20
-107.826920
 30
0.0
 10
99.650050
 20
-107.274630
 30
0.0
  0
LINE
  5
1fa
100
AcDbEntity
  8
0
 62
7
100
AcDbLine
 10
16.312954
 20
-68.698815
 30
0.0
 11
30.313124
 21
-68.698815
 31
0.0
  0
LINE
  5
1fb
100
AcDbEntity
  8
0
 62
7
100
AcDbLine
 10
77.937619
 20
-11.549580
 30
0.0
 11
77.937619
 21
-25.550544
 31
0.0
  0
LINE
  5
1fc
100
AcDbEntity
  8
0
 62
7
100
AcDbLine
 10
276.725143
 20
-44.149596
 30
0.0
 11
278.725134
 21
-44.149596
 31
0.0
  0
LINE
  5
1fd
100
AcDbEntity
  8
0
 62
7
100
AcDbLine
 10
82.700121
 20
-101.750582
 30
0.0
 11
68.699952
 21
-101.750582
 31
0.0
  0
LINE
  5
1fe
100
AcDbEntity
  8
0
 62
7
100
AcDbLine
 10
73.175116
 20
-44.600553
 30
0.0
 11
59.174947
 21
-44.600553
 31
0.0
  0
LINE
  5
1ff
100
AcDbEntity
  8
0
 62
7
100
AcDbLine
 10
99.650132
 20
-6.024548
 30
0.0
 11
99.650132
 21
-8.024535
 31
0.0
  0
LINE
  5
200
100
AcDbEntity
  8
0
 62
7
100
AcDbLine
 10
87.749961
 20
-63.650563
 30
0.0
 11
87.749961
 21
-49.648805
 31
0.0
  0
LINE
  5
201
100
AcDbEntity
  8
0
 62
7
100
AcDbLine
 10
44.600102
 20
-49.648805
 30
0.0
 11
44.600102
 21
-63.650563
 31
0.0
  0
LINE
  5
202
100
AcDbEntity
  8
0
 62
7
100
AcDbLine
 10
273.200222
 20
-11.549580
 30
0.0
 11
273.200222
 21
-25.550544
 31
0.0
  0
SPLINE
  5
203
100
AcDbEntity
  8
0
 62
7
100
AcDbSpline
 70
8
 71
3
 72
8
 73
4
 74
0
 40
0
 40
0
 40
0
 40
0
 40
1
 40
1
 40
1
 40
1
 10
9.025003
 20
-103.274635
 30
0.0
 10
9.025007
 20
-103.826917
 30
0.0
 10
9.472722
 20
-104.274628
 30
0.0
 10
10.025005
 20
-104.274628
 30
0.0
  0
LINE
  5
204
100
AcDbEntity
  8
0
 62
7
100
AcDbLine
 10
221.100029
 20
-25.550544
 30
0.0
 11
221.100029
 21
-11.549580
 31
0.0
  0
LINE
  5
205
100
AcDbEntity
  8
0
 62
7
100
AcDbLine
 10
78.224957
 20
-44.600553
 30
0.0
 11
78.224957
 21
-30.598796
 31
0.0
  0
LINE
  5
206
100
AcDbEntity
  8
0
 62
7
100
AcDbLine
 10
194.906262
 20
-25.550544
 30
0.0
 11
194.906262
 21
-11.549580
 31
0.0
  0
LINE
  5
207
100
AcDbEntity
  8
0
 62
7
100
AcDbLine
 10
99.650050
 20
-107.274630
 30
0.0
 11
99.650050
 21
-105.274620
 31
0.0
  0
LINE
  5
208
100
AcDbEntity
  8
0
 62
7
100
AcDbLine
 10
10.025129
 20
-9.024661
 30
0.0
 11
48.650081
 21
-9.024661
 31
0.0
  0
LINE
  5
209
100
AcDbEntity
  8
0
 62
7
100
AcDbLine
 10
18.693941
 20
-11.549580
 30
0.0
 11
32.694111
 21
-11.549580
 31
0.0
  0
LINE
  5
20a
100
AcDbEntity
  8
0
 62
7
100
AcDbLine
 10
106.799968
 20
-49.648805
 30
0.0
 11
120.800062
 21
-49.648805
 31
0.0
  0
LINE
  5
20b
100
AcDbEntity
  8
0
 62
7
100
AcDbLine
 10
187.475170
 20
-30.598796
 30
0.0
 11
187.475170
 21
-44.600553
 31
0.0
  0
LINE
  5
20c
100
AcDbEntity
  8
0
 62
7
100
AcDbLine
 10
6.025003
 20
-44.149596
 30
0.0
 11
8.025002
 21
-44.149596
 31
0.0
  0
LINE
  5
20d
100
AcDbEntity
  8
0
 62
7
100
AcDbLine
 10
259.200049
 20
-25.550544
 30
0.0
 11
259.200049
 21
-11.549580
 31
0.0
  0
LINE
  5
20e
100
AcDbEntity
  8
0
 62
7
100
AcDbLine
 10
9.025003
 20
-70.149605
 30
0.0
 11
9.025003
 21
-103.274582
 31
0.0
  0
LINE
  5
20f
100
AcDbEntity
  8
0
 62
7
100
AcDbLine
 10
235.100202
 20
-44.600553
 30
0.0
 11
221.100029
 21
-44.600553
 31
0.0
  0
LINE
  5
210
100
AcDbEntity
  8
0
 62
7
100
AcDbLine
 10
163.950083
 20
-49.648805
 30
0.0
 11
177.950167
 21
-49.648805
 31
0.0
  0
LINE
  5
211
100
AcDbEntity
  8
0
 62
7
100
AcDbLine
 10
158.900082
 20
-101.750582
 30
0.0
 11
144.900068
 21
-101.750582
 31
0.0
  0
LINE
  5
212
100
AcDbEntity
  8
0
 62
7
100
AcDbLine
 10
63.650112
 20
-49.648805
 30
0.0
 11
63.650112
 21
-63.650563
 31
0.0
  0
SPLINE
  5
213
100
AcDbEntity
  8
0
 62
7
100
AcDbSpline
 70
8
 71
3
 72
8
 73
4
 74
0
 40
0
 40
0
 40
0
 40
0
 40
1
 40
1
 40
1
 40
1
 10
9.317895
 20
-9.317468
 30
0.0
 10
9.130359
 20
-9.505006
 30
0.0
 10
9.025003
 20
-9.759359
 30
0.0
 10
9.025003
 20
-10.024576
 30
0.0
  0
ENDSEC
  0
SECTION
  2
OBJECTS
  0
DICTIONARY
  5
C
330
0
100
AcDbDictionary
  3
ACAD_GROUP
350
D
  3
ACAD_MLINESTYLE
350
17
  0
DICTIONARY
  5
D
330
C
100
AcDbDictionary
  0
DICTIONARY
  5
1A
330
C
100
AcDbDictionary
  0
DICTIONARY
  5
17
330
C
100
AcDbDictionary
  3
STANDARD
350
18
  0
DICTIONARY
  5
19
330
C
100
AcDbDictionary
  0
ENDSEC
  0
EOF
