<?xml version="1.0" encoding="UTF-8" standalone="no"?>
<svg
   version="1.1"
   width="284.75006mm"
   height="113.30003mm"
   viewBox="0 0 2.8475007e+08 1.1330003e+08"
   id="svg570"
   sodipodi:docname="plate.svg"
   inkscape:version="1.1.2 (0a00cf5339, 2022-02-04, custom)"
   xmlns:inkscape="http://www.inkscape.org/namespaces/inkscape"
   xmlns:sodipodi="http://sodipodi.sourceforge.net/DTD/sodipodi-0.dtd"
   xmlns="http://www.w3.org/2000/svg"
   xmlns:svg="http://www.w3.org/2000/svg"
   xmlns:rdf="http://www.w3.org/1999/02/22-rdf-syntax-ns#"
   xmlns:cc="http://creativecommons.org/ns#"
   xmlns:dc="http://purl.org/dc/elements/1.1/">
  <defs
     id="defs574" />
  <sodipodi:namedview
     id="namedview572"
     pagecolor="#ffffff"
     bordercolor="#666666"
     borderopacity="1.0"
     inkscape:pageshadow="2"
     inkscape:pageopacity="0.0"
     inkscape:pagecheckerboard="0"
     inkscape:document-units="cm"
     showgrid="false"
     lock-margins="true"
     fit-margin-top="5"
     fit-margin-left="5"
     fit-margin-right="5"
     fit-margin-bottom="5"
     units="mm"
     inkscape:zoom="0.67487099"
     inkscape:cx="459.34705"
     inkscape:cy="292.64853"
     inkscape:window-width="1920"
     inkscape:window-height="1135"
     inkscape:window-x="0"
     inkscape:window-y="0"
     inkscape:window-maximized="1"
     inkscape:current-layer="svg570" />
  <title
     id="title2">SVG Picture created as plate-brd.svg date 2022/04/23 14:12:14 </title>
  <desc
     id="desc4">Picture generated by PCBNEW </desc>
  <g
     style="fill:#000000;fill-opacity:1;stroke:#000000;stroke-linecap:round;stroke-linejoin:round;stroke-opacity:1"
     id="g6"
     transform="translate(16768286,16243354)" />
  <g
     style="fill:#000000;fill-opacity:0;stroke:#000000;stroke-width:0;stroke-linecap:round;stroke-linejoin:round;stroke-opacity:1"
     id="g8"
     transform="translate(16768286,16243354)" />
  <metadata
     id="metadata1393">
    <rdf:RDF>
      <cc:Work
         rdf:about="">
        <dc:title>SVG Picture created as plate-brd.svg date 2022/04/23 14:12:14 </dc:title>
      </cc:Work>
    </rdf:RDF>
  </metadata>
  <g
     id="g2937"
     transform="translate(5000000.1,5000000.1)">
    <g
       style="fill:#000000;fill-opacity:1;stroke:#000000;stroke-linecap:round;stroke-linejoin:round;stroke-opacity:1"
       id="g2085" />
    <g
       style="fill:#000000;fill-opacity:0;stroke:#000000;stroke-width:0;stroke-linecap:round;stroke-linejoin:round;stroke-opacity:1"
       id="g2087" />
    <g
       style="fill:#000000;fill-opacity:0;stroke:#000000;stroke-width:50000;stroke-linecap:round;stroke-linejoin:round;stroke-opacity:1"
       id="g2647">
      <path
         d="M 11312950,77700978 V 63699225"
         id="path2089" />
      <path
         d="M 5025126,99275108 H 43650068"
         id="path2091" />
      <path
         d="m 44650011,100275020 v 2000010"
         id="path2093" />
      <path
         d="M 249150140,77700978 H 235149970"
         id="path2095" />
      <path
         d="M 53887594,20550965 H 39887428"
         id="path2097" />
      <path
         d="m 271725070,64150023 c -552290,0 -1000000,447710 -1000010,999992"
         id="path2099" />
      <path
         d="m 192287460,63699225 h 14000170"
         id="path2101" />
      <path
         d="M 230100140,58650974 H 216099970"
         id="path2103" />
      <path
         d="m 149425030,25599216 h 14000010"
         id="path2105" />
      <path
         d="M 230100140,63699225 V 77700978"
         id="path2107" />
      <path
         d="m 180100040,102275030 c 10,552290 447720,1000000 1000000,1000000"
         id="path2109" />
      <path
         d="M 168474960,77700978 V 63699225"
         id="path2111" />
      <path
         d="M 158662540,20550965 H 144662530"
         id="path2113" />
      <path
         d="m 197049970,44649220 h 14000160"
         id="path2115" />
      <path
         d="M 3025000,64150023 H 1025001"
         id="path2117" />
      <path
         d="m 180392940,317894 c -187540,187537 -292900,441890 -292900,707107"
         id="path2119" />
      <path
         d="m 229100050,103275030 c 552290,0 1000000,-447710 1000000,-1000000"
         id="path2121" />
      <path
         d="M 230100140,77700978 H 216099970"
         id="path2123" />
      <path
         d="m 231100000,4025087 h 38624940"
         id="path2125" />
      <path
         d="M 25313116,39600969 H 11312950"
         id="path2127" />
      <path
         d="M 58937432,6550005 H 72937598"
         id="path2129" />
      <path
         d="M 211050130,58650974 H 197049970"
         id="path2131" />
      <path
         d="m 168474960,63699225 h 14000160"
         id="path2133" />
      <path
         d="M 206287630,25599216 V 39600969"
         id="path2135" />
      <path
         d="M 49125093,77700978 H 35124927"
         id="path2137" />
      <path
         d="M 73224936,77700978 V 63699225"
         id="path2139" />
      <path
         d="M 25599925,58650974 V 44649220"
         id="path2141" />
      <path
         d="M 115800030,58650974 H 101799940"
         id="path2143" />
      <path
         d="m 235149970,63699225 h 14000170"
         id="path2145" />
      <path
         d="m 43650010,4025001 c 552285,0 1000000,-447714 1000001,-999998"
         id="path2147" />
      <path
         d="M 158950040,58650974 V 44649220"
         id="path2149" />
      <path
         d="M 101799940,58650974 V 44649220"
         id="path2151" />
      <path
         d="M 54174931,39600969 V 25599216"
         id="path2153" />
      <path
         d="M 82749938,44649220 H 96750104"
         id="path2155" />
      <path
         d="M 58937432,20550965 V 6550005"
         id="path2157" />
      <path
         d="m 95649966,99275108 h 83450134"
         id="path2159" />
      <path
         d="M 72937598,20550965 H 58937432"
         id="path2161" />
      <path
         d="M 68175097,63699225 V 77700978"
         id="path2163" />
      <path
         d="M 249150140,44649220 V 58650974"
         id="path2165" />
      <path
         d="M 96750104,44649220 V 58650974"
         id="path2167" />
      <path
         d="M 254199980,63699225 V 77700978"
         id="path2169" />
      <path
         d="m 216099970,44649220 h 14000170"
         id="path2171" />
      <path
         d="M 25313116,63699225 V 77700978"
         id="path2173" />
      <path
         d="m 99274940,22099216 v 3500000"
         id="path2175" />
      <path
         d="m 254199980,58650974 h 14000170"
         id="path2177" />
      <path
         d="m 111325020,25599216 h 14000010"
         id="path2179" />
      <path
         d="M 153900040,44649220 V 58650974"
         id="path2181" />
      <path
         d="M 25313116,25599216 V 39600969"
         id="path2183" />
      <path
         d="m 181100040,103275030 h 48000010"
         id="path2185" />
      <path
         d="M 249150140,6550005 V 20550965"
         id="path2187" />
      <path
         d="M 25000,40150006 V 63150029"
         id="path2189" />
      <path
         d="M 39600090,58650974 H 25599925"
         id="path2191" />
      <path
         d="M 230100140,20550965 H 216099970"
         id="path2193" />
      <path
         d="M 101512610,96750983 H 87512439"
         id="path2195" />
      <path
         d="M 106275110,63699225 V 77700978"
         id="path2197" />
      <path
         d="M 77700099,44649220 V 58650974"
         id="path2199" />
      <path
         d="M 87225102,25599216 V 39600969"
         id="path2201" />
      <path
         d="m 139900030,44649220 h 14000010"
         id="path2203" />
      <path
         d="m 180100040,100275020 c 0,-552279 -447720,-999990 -1000000,-999991"
         id="path2205" />
      <path
         d="M 6549920,44649220 H 20550086"
         id="path2207" />
      <path
         d="M 125325030,63699225 V 77700978"
         id="path2209" />
      <path
         d="M 216099970,58650974 V 44649220"
         id="path2211" />
      <path
         d="m 235150240,20550965 -270,-14000960"
         id="path2213" />
      <path
         d="M 182475120,39600969 H 168474960"
         id="path2215" />
      <path
         d="M 192000130,44649220 V 58650974"
         id="path2217" />
      <path
         d="M 249150140,63699225 V 77700978"
         id="path2219" />
      <path
         d="m 273725060,64150023 c 552290,0 1000000,-447710 1000010,-999994"
         id="path2221" />
      <path
         d="M 163712540,20550965 V 6550005"
         id="path2223" />
      <path
         d="M 211050130,44649220 V 58650974"
         id="path2225" />
      <path
         d="M 163425040,25599216 V 39600969"
         id="path2227" />
      <path
         d="m 4025001,65150015 c -4,-552282 -447719,-999992 -1000001,-999992"
         id="path2229" />
      <path
         d="M 4025001,5025002 V 38150020"
         id="path2231" />
      <path
         d="M 92274940,39600969 V 22099216"
         id="path2233" />
      <path
         d="M 270725060,5024946 V 38150020"
         id="path2235" />
      <path
         d="M 163425040,39600969 H 149425030"
         id="path2237" />
      <path
         d="m 270432170,4317894 c -187540,-187536 -441890,-292893 -707110,-292893"
         id="path2239" />
      <path
         d="M 144662530,20550965 V 6550005"
         id="path2241" />
      <path
         d="M 172950120,58650974 H 158950040"
         id="path2243" />
      <path
         d="m 230100050,102275030 v -2000010"
         id="path2245" />
      <path
         d="M 35124927,63699225 H 49125093"
         id="path2247" />
      <path
         d="m 94650024,1025001 c 0,-265217 -105357,-519570 -292894,-707107"
         id="path2249" />
      <path
         d="M 115800030,44649220 V 58650974"
         id="path2251" />
      <path
         d="M 268200150,58650974 V 44649220"
         id="path2253" />
      <path
         d="m 181100080,25114 h 47999930"
         id="path2255" />
      <path
         d="M 20550086,44649220 V 58650974"
         id="path2257" />
      <path
         d="m 44650011,102275030 c 4,552290 447719,1000000 1000001,1000000"
         id="path2259" />
      <path
         d="M 134850030,58650974 H 120850030"
         id="path2261" />
      <path
         d="M 163425040,63699225 V 77700978"
         id="path2263" />
      <path
         d="m 168474960,25599216 h 14000160"
         id="path2265" />
      <path
         d="M 139900030,58650974 V 44649220"
         id="path2267" />
      <path
         d="M 77700099,58650974 H 63699934"
         id="path2269" />
      <path
         d="M 106275110,39600969 H 92274940"
         id="path2271" />
      <path
         d="M 54174931,25599216 H 68175097"
         id="path2273" />
      <path
         d="M 268200150,63699225 V 77700978"
         id="path2275" />
      <path
         d="M 49125093,25599216 V 39600969"
         id="path2277" />
      <path
         d="M 177712620,6550005 V 20550965"
         id="path2279" />
      <path
         d="m 3025000,39150013 c 552282,1 999997,-447710 1000001,-999993"
         id="path2281" />
      <path
         d="m 130375030,25599216 h 14000010"
         id="path2283" />
      <path
         d="M 87225102,77700978 H 73224936"
         id="path2285" />
      <path
         d="m 95650022,99275029 c -552281,1 -999994,447712 -999998,999991"
         id="path2287" />
      <path
         d="M 158662540,6550005 V 20550965"
         id="path2289" />
      <path
         d="m 254199980,77700978 h 14000170"
         id="path2291" />
      <path
         d="m 149425030,63699225 h 14000010"
         id="path2293" />
      <path
         d="M 125325030,39600969 H 111325020"
         id="path2295" />
      <path
         d="m 177999960,44649220 h 14000170"
         id="path2297" />
      <path
         d="M 35124927,77700978 V 63699225"
         id="path2299" />
      <path
         d="m 92274940,63699225 h 14000170"
         id="path2301" />
      <path
         d="M 230100140,25599216 V 39600969"
         id="path2303" />
      <path
         d="M 249150140,58650974 H 235149970"
         id="path2305" />
      <path
         d="M 230100140,6550005 V 20550965"
         id="path2307" />
      <path
         d="M 87512439,96750983 V 82749230"
         id="path2309" />
      <path
         d="m 192287460,25599216 h 14000170"
         id="path2311" />
      <path
         d="m 111325020,63699225 h 14000010"
         id="path2313" />
      <path
         d="M 139900030,96750983 V 82749230"
         id="path2315" />
      <path
         d="M 206287630,63699225 V 77700978"
         id="path2317" />
      <path
         d="M 125325030,77700978 H 111325020"
         id="path2319" />
      <path
         d="m 231100000,99275108 h 38624940"
         id="path2321" />
      <path
         d="m 139900030,82749230 h 14000010"
         id="path2323" />
      <path
         d="M 63699934,44649220 H 77700099"
         id="path2325" />
      <path
         d="M 35124927,39600969 V 25599216"
         id="path2327" />
      <path
         d="M 149425030,77700978 V 63699225"
         id="path2329" />
      <path
         d="M 116087530,82749230 V 96750983"
         id="path2331" />
      <path
         d="M 192000130,58650974 H 177999960"
         id="path2333" />
      <path
         d="M 192287460,77700978 V 63699225"
         id="path2335" />
      <path
         d="M 101512610,82749230 V 96750983"
         id="path2337" />
      <path
         d="M 68175097,77700978 H 54174931"
         id="path2339" />
      <path
         d="m 230100140,1024975 -90,2000028"
         id="path2341" />
      <path
         d="M 130375030,39600969 V 25599216"
         id="path2343" />
      <path
         d="M 144375040,77700978 H 130375030"
         id="path2345" />
      <path
         d="M 268200150,20550965 H 254199980"
         id="path2347" />
      <path
         d="m 181100040,25000 c -265210,0 -519570,105357 -707100,292894"
         id="path2349" />
      <path
         d="m 5025002,4025001 c -265217,0 -519571,105357 -707109,292893"
         id="path2351" />
      <path
         d="m 163712540,6550005 h 14000080"
         id="path2353" />
      <path
         d="M 274725070,40150006 V 63150029"
         id="path2355" />
      <path
         d="M 235149970,39600969 V 25599216"
         id="path2357" />
      <path
         d="M 216099970,77700978 V 63699225"
         id="path2359" />
      <path
         d="M 134850030,44649220 V 58650974"
         id="path2361" />
      <path
         d="M 77700099,82749230 V 96750983"
         id="path2363" />
      <path
         d="M 94357130,317894 C 94169594,130357 93915239,25000 93650023,25000"
         id="path2365" />
      <path
         d="M 54174931,63699225 H 68175097"
         id="path2367" />
      <path
         d="M 177712620,20550965 H 163712540"
         id="path2369" />
      <path
         d="M 45650012,103275030 H 93650023"
         id="path2371" />
      <path
         d="m 216099970,25599216 h 14000170"
         id="path2373" />
      <path
         d="M 206287630,77700978 H 192287460"
         id="path2375" />
      <path
         d="M 106275110,25599216 V 39600969"
         id="path2377" />
      <path
         d="m 269725060,99275029 c 552290,0 1000000,-447711 1000000,-999993"
         id="path2379" />
      <path
         d="M 53887594,6550005 V 20550965"
         id="path2381" />
      <path
         d="m 230100050,1025001 c 0,-265217 -105350,-519570 -292890,-707107"
         id="path2383" />
      <path
         d="M 106275110,77700978 H 92274940"
         id="path2385" />
      <path
         d="M 153900040,82749230 V 96750983"
         id="path2387" />
      <path
         d="M 111325020,39600969 V 25599216"
         id="path2389" />
      <path
         d="M 63699934,96750983 V 82749230"
         id="path2391" />
      <path
         d="M 63699934,58650974 V 44649220"
         id="path2393" />
      <path
         d="m 99274940,25599216 h 7000170"
         id="path2395" />
      <path
         d="m 216099970,63699225 h 14000170"
         id="path2397" />
      <path
         d="M 35124927,25599216 H 49125093"
         id="path2399" />
      <path
         d="M 203906380,20550965 H 189906210"
         id="path2401" />
      <path
         d="M 254199980,25599216 V 39600969"
         id="path2403" />
      <path
         d="M 111325020,77700978 V 63699225"
         id="path2405" />
      <path
         d="M 254199980,44649220 V 58650974"
         id="path2407" />
      <path
         d="M 125325030,25599216 V 39600969"
         id="path2409" />
      <path
         d="m 273725060,64150023 h -1999990"
         id="path2411" />
      <path
         d="M 11312950,39600969 V 25599216"
         id="path2413" />
      <path
         d="m 235149970,44649220 h 14000170"
         id="path2415" />
      <path
         d="m 180100040,100275020 v 2000010"
         id="path2417" />
      <path
         d="M 268200150,44649220 H 254199980"
         id="path2419" />
      <path
         d="m 179100040,4025001 c 552290,-1 1000000,-447715 1000000,-999998"
         id="path2421" />
      <path
         d="M 235149970,77700978 V 63699225"
         id="path2423" />
      <path
         d="M 177999960,58650974 V 44649220"
         id="path2425" />
      <path
         d="M 144375040,39600969 H 130375030"
         id="path2427" />
      <path
         d="m 254199980,6550005 h 14000170"
         id="path2429" />
      <path
         d="M 20550086,58650974 H 6549920"
         id="path2431" />
      <path
         d="M 216099970,39600969 V 25599216"
         id="path2433" />
      <path
         d="M 44649929,3024961 V 1024975"
         id="path2435" />
      <path
         d="M 25599925,44649220 H 39600090"
         id="path2437" />
      <path
         d="M 120850030,58650974 V 44649220"
         id="path2439" />
      <path
         d="M 87225102,63699225 V 77700978"
         id="path2441" />
      <path
         d="M 153900040,58650974 H 139900030"
         id="path2443" />
      <path
         d="M 130375030,77700978 V 63699225"
         id="path2445" />
      <path
         d="m 92274940,22099216 h 7000000"
         id="path2447" />
      <path
         d="M 39887428,20550965 V 6550005"
         id="path2449" />
      <path
         d="M 27694102,20550965 H 13693936"
         id="path2451" />
      <path
         d="M 144375040,25599216 V 39600969"
         id="path2453" />
      <path
         d="M 54174931,77700978 V 63699225"
         id="path2455" />
      <path
         d="M 25313116,77700978 H 11312950"
         id="path2457" />
      <path
         d="M 73224936,25599216 H 87225102"
         id="path2459" />
      <path
         d="m 270725060,38150020 c 10,552283 447720,999994 1000010,999993"
         id="path2461" />
      <path
         d="m 25000,63150029 c 4,552284 447718,999994 1000001,999994"
         id="path2463" />
      <path
         d="m 144662530,6550005 h 14000010"
         id="path2465" />
      <path
         d="m 95649966,4025087 h 83450134"
         id="path2467" />
      <path
         d="M 73224936,63699225 H 87225102"
         id="path2469" />
      <path
         d="M 168474960,39600969 V 25599216"
         id="path2471" />
      <path
         d="M 45650054,25114 H 93649980"
         id="path2473" />
      <path
         d="M 63699934,82749230 H 77700099"
         id="path2475" />
      <path
         d="M 130087530,82749230 H 116087530"
         id="path2477" />
      <path
         d="M 68175097,25599216 V 39600969"
         id="path2479" />
      <path
         d="M 13693936,20550965 V 6550005"
         id="path2481" />
      <path
         d="M 268200150,25599216 H 254199980"
         id="path2483" />
      <path
         d="m 120850030,44649220 h 14000000"
         id="path2485" />
      <path
         d="m 274725070,40150006 c -10,-552282 -447720,-999993 -1000010,-999993"
         id="path2487" />
      <path
         d="m 94650024,3025003 c 1,552283 447714,999997 999998,999998"
         id="path2489" />
      <path
         d="M 235149970,58650974 V 44649220"
         id="path2491" />
      <path
         d="M 96750104,58650974 H 82749938"
         id="path2493" />
      <path
         d="m 254199980,63699225 h 14000170"
         id="path2495" />
      <path
         d="M 49125093,63699225 V 77700978"
         id="path2497" />
      <path
         d="m 270725060,5025002 c 0,-265217 -105350,-519570 -292890,-707108"
         id="path2499" />
      <path
         d="M 44649929,58650974 V 44649220"
         id="path2501" />
      <path
         d="M 11312950,25599216 H 25313116"
         id="path2503" />
      <path
         d="M 49125093,39600969 H 35124927"
         id="path2505" />
      <path
         d="m 1025001,39150013 c -552283,0 -999997,447711 -1000001,999993"
         id="path2507" />
      <path
         d="m 189906210,6550005 h 14000170"
         id="path2509" />
      <path
         d="M 249150140,39600969 H 235149970"
         id="path2511" />
      <path
         d="M 268200150,25599216 V 39600969"
         id="path2513" />
      <path
         d="M 149425030,39600969 V 25599216"
         id="path2515" />
      <path
         d="M 182475120,63699225 V 77700978"
         id="path2517" />
      <path
         d="m 229807160,317894 c -187540,-187537 -441890,-292894 -707110,-292894"
         id="path2519" />
      <path
         d="M 206287630,39600969 H 192287460"
         id="path2521" />
      <path
         d="M 182475120,77700978 H 168474960"
         id="path2523" />
      <path
         d="M 268200150,39600969 H 254199980"
         id="path2525" />
      <path
         d="M 249150140,20550965 H 235150240"
         id="path2527" />
      <path
         d="M 180099960,3024961 V 1024975"
         id="path2529" />
      <path
         d="M 130087530,96750983 V 82749230"
         id="path2531" />
      <path
         d="M 172950120,44649220 V 58650974"
         id="path2533" />
      <path
         d="m 87512439,82749230 h 14000171"
         id="path2535" />
      <path
         d="M 39887428,6550005 H 53887594"
         id="path2537" />
      <path
         d="m 44650011,100275020 c -4,-552280 -447719,-999991 -1000001,-999991"
         id="path2539" />
      <path
         d="M 249150140,25599216 V 39600969"
         id="path2541" />
      <path
         d="M 270725060,65150015 V 98274983"
         id="path2543" />
      <path
         d="M 144375040,63699225 V 77700978"
         id="path2545" />
      <path
         d="M 197049970,58650974 V 44649220"
         id="path2547" />
      <path
         d="M 92274940,77700978 V 63699225"
         id="path2549" />
      <path
         d="m 235149970,6550005 h 14000170"
         id="path2551" />
      <path
         d="m 44942904,317894 c -187536,187537 -292893,441890 -292893,707107"
         id="path2553" />
      <path
         d="m 130375030,63699225 h 14000010"
         id="path2555" />
      <path
         d="M 27694102,6550005 V 20550965"
         id="path2557" />
      <path
         d="M 87225102,39600969 H 73224936"
         id="path2559" />
      <path
         d="m 216099970,6550005 h 14000170"
         id="path2561" />
      <path
         d="M 6549920,58650974 V 44649220"
         id="path2563" />
      <path
         d="m 116087530,96750983 h 14000000"
         id="path2565" />
      <path
         d="M 58650095,58650974 H 44649929"
         id="path2567" />
      <path
         d="m 231100060,99275029 c -552290,0 -1000000,447711 -1000010,999991"
         id="path2569" />
      <path
         d="M 163425040,77700978 H 149425030"
         id="path2571" />
      <path
         d="M 192287460,39600969 V 25599216"
         id="path2573" />
      <path
         d="m 45650012,25000 c -265217,0 -519572,105357 -707108,292894"
         id="path2575" />
      <path
         d="M 203906380,6550005 V 20550965"
         id="path2577" />
      <path
         d="m 235149970,25599216 h 14000170"
         id="path2579" />
      <path
         d="m 230100050,3025003 c 10,552284 447720,999998 1000010,999998"
         id="path2581" />
      <path
         d="M 230100140,44649220 V 58650974"
         id="path2583" />
      <path
         d="M 44649929,44649220 H 58650095"
         id="path2585" />
      <path
         d="m 93650023,103275030 c 552282,0 999996,-447710 1000001,-1000000"
         id="path2587" />
      <path
         d="M 11312950,63699225 H 25313116"
         id="path2589" />
      <path
         d="M 72937598,6550005 V 20550965"
         id="path2591" />
      <path
         d="m 271725070,39150013 h 1999990"
         id="path2593" />
      <path
         d="M 77700099,96750983 H 63699934"
         id="path2595" />
      <path
         d="M 68175097,39600969 H 54174931"
         id="path2597" />
      <path
         d="M 94650106,1024975 V 3024961"
         id="path2599" />
      <path
         d="M 82749938,58650974 V 44649220"
         id="path2601" />
      <path
         d="M 39600090,44649220 V 58650974"
         id="path2603" />
      <path
         d="M 268200150,6550005 V 20550965"
         id="path2605" />
      <path
         d="m 4025001,98275036 c 4,552282 447718,999993 1000001,999993"
         id="path2607" />
      <path
         d="M 216099970,20550965 V 6550005"
         id="path2609" />
      <path
         d="M 73224936,39600969 V 25599216"
         id="path2611" />
      <path
         d="M 189906210,20550965 V 6550005"
         id="path2613" />
      <path
         d="m 94650024,102275030 v -2000010"
         id="path2615" />
      <path
         d="M 5025126,4025087 H 43650068"
         id="path2617" />
      <path
         d="M 13693936,6550005 H 27694102"
         id="path2619" />
      <path
         d="m 101799940,44649220 h 14000090"
         id="path2621" />
      <path
         d="M 182475120,25599216 V 39600969"
         id="path2623" />
      <path
         d="M 1025001,39150013 H 3025000"
         id="path2625" />
      <path
         d="M 254199980,20550965 V 6550005"
         id="path2627" />
      <path
         d="M 4025001,65150015 V 98274983"
         id="path2629" />
      <path
         d="M 230100140,39600969 H 216099970"
         id="path2631" />
      <path
         d="m 158950040,44649220 h 14000080"
         id="path2633" />
      <path
         d="M 153900040,96750983 H 139900030"
         id="path2635" />
      <path
         d="M 58650095,44649220 V 58650974"
         id="path2637" />
      <path
         d="m 4317893,4317894 c -187536,187538 -292892,441891 -292892,707108"
         id="path2639" />
      <g
         id="g2641" />
      <g
         id="g2643" />
      <g
         id="g2645" />
    </g>
  </g>
</svg>
